<svg xmlns="http://www.w3.org/2000/svg" width="458.84" height="442.65" viewBox="0 0 458.84 442.65">
    <defs>
    <style>
        .a{fill:none;stroke:#4338ca;stroke-linecap:round;stroke-linejoin:round;stroke-width:24.87px;}
        .b{fill:#4338ca;}
        @media (prefers-color-scheme: dark) {
            .a{stroke:#fafafa;}
            .b{fill:#fafafa;}
        }
    </style></defs>
<path class="a" d="M276.43,159.65S317.67,47.11,385.88,47.11,473,151.17,473,151.17H417.1v82.48s-5.06,68-49,97.5c-48.17,32.38-189,67.9-267.2,79.08" transform="translate(-26.58 -34.67)"/><polyline class="a" points="172.38 360.07 136.54 430.22 39.03 430.22 150.41 257.94"/><polyline class="a" points="265.65 200.13 244.45 234.82 145.79 257.94 81.04 239.06 12.44 150.41 105.7 136 165.83 105.7 274.13 135.77"/><polyline class="a" points="135.38 115.72 99.92 75.26 96.07 29.78 229.03 54.83 263.34 90.29"/><circle class="b" cx="359.3" cy="63.31" r="15.42"/></svg>