<svg xmlns="http://www.w3.org/2000/svg" width="24" height="24" viewBox="0 0 24 24"><circle cx="12" cy="12" r="12" style="fill:#cfc9c2"/><path d="M5.52,12.58A14.17,14.17,0,0,1,7,6.09c1.22-2.46,2.91-3.69,5-3.69A5.46,5.46,0,0,1,17,5.54a11.83,11.83,0,0,1,1.49,6A13.81,13.81,0,0,1,17,18q-1.8,3.61-5,3.62a5.47,5.47,0,0,1-4.88-3.1A11.55,11.55,0,0,1,5.52,12.58Zm2.71-1.06a15.6,15.6,0,0,0,1.39,7.24,2.87,2.87,0,0,0,2.49,1.81q3.66,0,3.66-7.57a23.06,23.06,0,0,0-.59-5.62q-1-3.78-3.39-3.78-3.55,0-3.56,7.3Z" style="fill:#03060d"/></svg>