<svg xmlns="http://www.w3.org/2000/svg" width="24" height="24" viewBox="0 0 24 24"><path d="M24,12A12,12,0,1,1,12,0,12,12,0,0,1,24,12Z" transform="translate(0)" style="fill:#cfc9c2"/><path d="M8.47,4.47V16.58c0,1.44.62,2.16,1.85,2.16h.31v.82H4.19v-.82H4.6c1.18,0,1.78-.72,1.78-2.16V8.64q0-2.19-1.56-2.19H4.19V5.63h.24a5.47,5.47,0,0,0,3.4-1.16Zm2.35,8A11.45,11.45,0,0,1,12,7.27c1-2,2.35-2.95,4.08-2.95a4.42,4.42,0,0,1,4,2.52,9.47,9.47,0,0,1,1.19,4.78A11.27,11.27,0,0,1,20,16.79q-1.49,2.89-4,2.89a4.42,4.42,0,0,1-3.93-2.49A9.09,9.09,0,0,1,10.82,12.47ZM13,11.59a16.84,16.84,0,0,0,.51,4.32c.53,2,1.39,2.95,2.59,2.95,1.94,0,2.92-2,2.92-6.08q0-7.51-3.17-7.52Q13,5.26,13,11.1Z" transform="translate(0)" style="fill:#03060d"/></svg>