<svg xmlns="http://www.w3.org/2000/svg" width="23" height="12.23" viewBox="0 0 23 12.23"><path d="M17.38,5.88H6.62a6.12,6.12,0,0,0,0,12.24H17.38a6.12,6.12,0,0,0,0-12.24Z" transform="translate(-0.5 -5.88)" style="fill:#cfc9c2"/><path d="M5.83,7.47v7.26c0,.87.37,1.3,1.1,1.3h.19v.5H3.26V16H3.5c.71,0,1.06-.43,1.06-1.3V10c0-.88-.3-1.32-.91-1.32H3.26V8.17H3.4a3.26,3.26,0,0,0,2-.7Z" transform="translate(-0.5 -5.88)" style="fill:#03060d"/><path d="M8.22,12.27a6.87,6.87,0,0,1,.7-3.06A2.65,2.65,0,0,1,11.3,7.47,2.58,2.58,0,0,1,13.63,9a5.56,5.56,0,0,1,.7,2.84,6.47,6.47,0,0,1-.7,3,2.62,2.62,0,0,1-2.37,1.71A2.59,2.59,0,0,1,9,15.06,5.48,5.48,0,0,1,8.22,12.27Zm1.28-.5a7.31,7.31,0,0,0,.66,3.42,1.34,1.34,0,0,0,1.17.85c1.15,0,1.72-1.19,1.72-3.57a11.14,11.14,0,0,0-.27-2.65C12.46,8.63,11.93,8,11.18,8,10.06,8,9.5,9.19,9.5,11.48Z" transform="translate(-0.5 -5.88)" style="fill:#03060d"/><path d="M15.73,12.27a6.74,6.74,0,0,1,.7-3.06A2.64,2.64,0,0,1,18.8,7.47,2.6,2.6,0,0,1,21.14,9a5.67,5.67,0,0,1,.7,2.84,6.6,6.6,0,0,1-.7,3,2.63,2.63,0,0,1-2.38,1.71,2.58,2.58,0,0,1-2.3-1.47A5.38,5.38,0,0,1,15.73,12.27Zm1.28-.5a7.33,7.33,0,0,0,.65,3.42,1.37,1.37,0,0,0,1.18.85c1.14,0,1.72-1.19,1.72-3.57a10.6,10.6,0,0,0-.28-2.65C20,8.63,19.44,8,18.68,8,17.56,8,17,9.19,17,11.48Z" transform="translate(-0.5 -5.88)" style="fill:#03060d"/></svg>