<svg xmlns="http://www.w3.org/2000/svg" width="24" height="24" viewBox="0 0 24 24"><path d="M24,12A12,12,0,1,1,12,0,12,12,0,0,1,24,12Z" style="fill:#cfc9c2"/><path d="M8.55,4.61v11.8c0,1.41.58,2.12,1.75,2.12h.3v.83H4.32v-.83h.37c1.18,0,1.78-.71,1.78-2.12V8.66C6.47,7.23,6,6.51,5,6.51H4.35V5.72H4.6A5.37,5.37,0,0,0,7.91,4.61ZM20.78,15.74l-1.07,3.65h-9v-.8q.64-.73,2.85-2.94,1.32-1.32,2.64-2.82c.42-.49.76-.9,1-1.23A4.21,4.21,0,0,0,18,9.27a3.18,3.18,0,0,0-.7-2,2.26,2.26,0,0,0-1.87-.89c-1.62,0-2.88,1.1-3.8,3.31l-.8-.31c1.1-3.06,2.82-4.6,5.15-4.6A4.1,4.1,0,0,1,18.91,5.9a3.85,3.85,0,0,1,1.23,2.91q0,2.24-2.54,4.36l-1.75,1.4a25.13,25.13,0,0,0-2.79,2.67l-.31.34h4.69a2.6,2.6,0,0,0,1.6-.4A3.54,3.54,0,0,0,20,15.74Z" style="fill:#03060d"/></svg>