<svg xmlns="http://www.w3.org/2000/svg" width="24" height="24" viewBox="0 0 24 24"><path d="M24,12A12,12,0,1,1,12,0,12,12,0,0,1,24,12Z" style="fill:#cfc9c2"/><path d="M9.11,4.75V16.4c0,1.37.58,2.05,1.75,2.05h.28v.8H4.94v-.8h.4c1.19,0,1.78-.68,1.78-2.05V8.77c0-1.41-.5-2.12-1.5-2.12H5v-.8h.25A5.17,5.17,0,0,0,8.5,4.75Zm5.21,7.73L14,11.8l.27-.15c.92-.57,1.78-1.15,2.56-1.74a2.45,2.45,0,0,0,1.18-2,1.59,1.59,0,0,0-.58-1.27,1.92,1.92,0,0,0-1.29-.51c-1.18,0-2.43.72-3.74,2.15l-.61-.46c1.35-2,3-3.07,5-3.07a3.6,3.6,0,0,1,2.17.64,2.23,2.23,0,0,1,1.05,1.94A2.53,2.53,0,0,1,19.2,9a13,13,0,0,1-1.47,1.26l-.28.24a3,3,0,0,1,.46,0,2.76,2.76,0,0,1,2.21,1A3.56,3.56,0,0,1,21,13.88a4.71,4.71,0,0,1-2,3.87,6.27,6.27,0,0,1-4.13,1.47,5.59,5.59,0,0,1-3.41-.92l.43-.61a6.27,6.27,0,0,0,2.64.67,4.64,4.64,0,0,0,3.06-1.13A3.55,3.55,0,0,0,19,14.41a2.87,2.87,0,0,0-.67-1.93,2.19,2.19,0,0,0-1.78-.8A4,4,0,0,0,14.32,12.48Z" style="fill:#03060d"/></svg>