<svg xmlns="http://www.w3.org/2000/svg" width="24" height="24" viewBox="0 0 24 24"><path d="M24,12A12,12,0,1,1,12,0,12,12,0,0,1,24,12Z" transform="translate(0)" style="fill:#cfc9c2"/><path d="M8.71,4.67V16.45c0,1.39.59,2.08,1.75,2.08h.28v.8H4.48v-.8h.4c1.19,0,1.78-.69,1.78-2.08V8.72c0-1.41-.5-2.12-1.5-2.12H4.54V5.81h.25A5.23,5.23,0,0,0,8.07,4.67ZM19.05,15.16v1.22c0,1.37.47,2.06,1.44,2.06h.39v.79H15v-.79h.46c1,0,1.44-.68,1.44-2V15.16H11V13.93l6.23-9.07h1.78v9.25h.15c.59,0,1-.46,1.32-1.4h.73l-.37,2.45Zm-1.63-1.23V6.21l-5.21,7.72Z" transform="translate(0)" style="fill:#03060d"/></svg>