<svg xmlns="http://www.w3.org/2000/svg" width="24" height="24" viewBox="0 0 24 24"><path d="M24,12A12,12,0,1,1,12,0,12,12,0,0,1,24,12Z" style="fill:#cfc9c2"/><path d="M8.32,4.35v12.2c0,1.45.6,2.18,1.81,2.18h.31v.83H3.94v-.83h.43c1.22,0,1.84-.73,1.84-2.18v-8c0-1.47-.53-2.21-1.57-2.21H4V5.52h.24A5.53,5.53,0,0,0,7.68,4.35Zm4.29.31h5.55c.72,0,1.15-.08,1.29-.25h.8L19.79,6.5H13l-.64,3a6.94,6.94,0,0,1,2.57-.58,5.14,5.14,0,0,1,3.73,1.47,4.93,4.93,0,0,1,1.52,3.68,5,5,0,0,1-2,4.14,7,7,0,0,1-4.44,1.44,10,10,0,0,1-3-.46l.31-.77a8.13,8.13,0,0,0,2.18.34,4.86,4.86,0,0,0,3.32-1.26A4,4,0,0,0,18,14.38,3.56,3.56,0,0,0,17,11.71a3.59,3.59,0,0,0-2.65-1,4.32,4.32,0,0,0-2.79,1L11,11.62Z" style="fill:#03060d"/></svg>