<svg xmlns="http://www.w3.org/2000/svg" width="24" height="24" viewBox="0 0 24 24"><path d="M24,12A12,12,0,1,1,12,0,12,12,0,0,1,24,12Z" style="fill:#cfc9c2"/><path d="M8.23,4.4V16.6c0,1.45.61,2.18,1.81,2.18h.31v.82H3.85v-.82h.43c1.23,0,1.84-.73,1.84-2.18v-8c0-1.47-.52-2.21-1.56-2.21H3.91V5.56h.25A5.57,5.57,0,0,0,7.59,4.4ZM13.05,11a5,5,0,0,1,3.4-1.6,3.57,3.57,0,0,1,3,1.48,5.15,5.15,0,0,1,1,3.28,5.7,5.7,0,0,1-1.23,3.64,4.09,4.09,0,0,1-3.37,1.75A4.51,4.51,0,0,1,12,17.46a7.41,7.41,0,0,1-1.29-4.36,8.89,8.89,0,0,1,1.47-4.95,8.05,8.05,0,0,1,4-3.2,8.25,8.25,0,0,1,2.95-.52v.79a5.88,5.88,0,0,0-4.94,2.64A7.85,7.85,0,0,0,13.05,11Zm-.16,1.5c0,.31,0,.61,0,.92a8.59,8.59,0,0,0,.62,3.28c.53,1.31,1.3,2,2.33,2a2.14,2.14,0,0,0,2-1.35,5.87,5.87,0,0,0,.49-2.54,7.13,7.13,0,0,0-.46-2.7,2.18,2.18,0,0,0-2-1.53A3.41,3.41,0,0,0,12.89,12.49Z" style="fill:#03060d"/></svg>