<svg xmlns="http://www.w3.org/2000/svg" width="24" height="24" viewBox="0 0 24 24"><path d="M24,12A12,12,0,1,1,12,0,12,12,0,0,1,24,12Z" transform="translate(0)" style="fill:#cfc9c2"/><path d="M8.09,4.6V16.43c0,1.41.58,2.12,1.75,2.12h.27v.79H3.83v-.79h.43c1.18,0,1.78-.71,1.78-2.12V8.67C6,7.24,5.53,6.53,4.5,6.53H3.89v-.8h.25A5.33,5.33,0,0,0,7.45,4.6Zm7.85,14.83H13.79v-.24A14.23,14.23,0,0,1,15.08,14,46.55,46.55,0,0,1,18.7,6.83l.12-.21h-5a2.6,2.6,0,0,0-1.67.46,3,3,0,0,0-.87,1.53h-.83l.92-4h.55a4.49,4.49,0,0,0,1.66.21h6.62V6a12.71,12.71,0,0,0-.92,1.65,31.79,31.79,0,0,0-2,4.84A24.4,24.4,0,0,0,15.94,19.43Z" transform="translate(0)" style="fill:#03060d"/></svg>