<svg xmlns="http://www.w3.org/2000/svg" width="24" height="24" viewBox="0 0 24 24"><path d="M24,12A12,12,0,1,1,12,0,12,12,0,0,1,24,12Z" style="fill:#cfc9c2"/><path d="M8.63,4.61V16.48c0,1.41.59,2.11,1.75,2.11h.31v.8H4.37v-.8h.4c1.21,0,1.81-.7,1.81-2.11V8.69c0-1.43-.51-2.15-1.53-2.15H4.43V5.75h.25A5.26,5.26,0,0,0,8,4.61Zm5.43,7.3-.31-.25a9.17,9.17,0,0,1-1.9-1.56,3,3,0,0,1-.55-1.78,3.31,3.31,0,0,1,1.44-2.76,4.84,4.84,0,0,1,3.07-1,5.2,5.2,0,0,1,2.94.86A3,3,0,0,1,20.16,8c0,1.31-.9,2.37-2.7,3.16q3.11,1.5,3.1,4.2a3.65,3.65,0,0,1-1.5,3.07,5.17,5.17,0,0,1-3.28,1,5.52,5.52,0,0,1-3.25-.95A3.33,3.33,0,0,1,11,15.65a3.44,3.44,0,0,1,1.69-3A13.51,13.51,0,0,1,14.06,11.91Zm.86.34a3.41,3.41,0,0,0-2.24,3.25,3,3,0,0,0,.92,2.28,3.21,3.21,0,0,0,2.3.87A3.46,3.46,0,0,0,18.08,18,2.28,2.28,0,0,0,19,16.05c0-1.25-.8-2.25-2.4-3Zm1.68-1.48a2.84,2.84,0,0,0,2-2.63,2.44,2.44,0,0,0-.84-1.93,3.07,3.07,0,0,0-2.07-.74,3,3,0,0,0-1.81.58,1.86,1.86,0,0,0-.8,1.6,2.26,2.26,0,0,0,1.13,2c.17.1.84.43,2,1Z" style="fill:#03060d"/></svg>