<svg xmlns="http://www.w3.org/2000/svg" width="24" height="24" viewBox="0 0 24 24"><path d="M24,12A12,12,0,1,1,12,0,12,12,0,0,1,24,12Z" style="fill:#cfc9c2"/><path d="M8.92,4.46V16.51c0,1.43.6,2.14,1.81,2.14H11v.83H4.6v-.83H5c1.2,0,1.8-.71,1.8-2.14V8.6c0-1.45-.51-2.18-1.53-2.18H4.66V5.59H4.9A5.65,5.65,0,0,0,8.31,4.46ZM18.7,13a5,5,0,0,1-3.37,1.6,3.55,3.55,0,0,1-3-1.51,5.13,5.13,0,0,1-1-3.21,6,6,0,0,1,1.2-3.68,4.06,4.06,0,0,1,3.34-1.75,4.4,4.4,0,0,1,3.83,2.08A7.42,7.42,0,0,1,21,11,8.4,8.4,0,0,1,18.65,17a8,8,0,0,1-6,2.5v-.8a8.46,8.46,0,0,0,1.75-.24Q18.09,17.39,18.7,13Zm.15-1.5c0-.33,0-.63,0-.92a8.36,8.36,0,0,0-.61-3.25c-.55-1.29-1.33-1.93-2.33-1.93A2,2,0,0,0,14,6.76a5.63,5.63,0,0,0-.52,2.51A6.75,6.75,0,0,0,14,12a2.13,2.13,0,0,0,2,1.5A3.38,3.38,0,0,0,18.85,11.54Z" style="fill:#03060d"/></svg>