<svg xmlns="http://www.w3.org/2000/svg" width="24" height="24" viewBox="0 0 24 24"><path d="M24,12A12,12,0,1,1,12,0,12,12,0,0,1,24,12Z" style="fill:#cfc9c2"/><path d="M18.59,16.82,17.17,21.6H5.41v-1c.57-.64,1.83-1.92,3.76-3.85Q10.91,15,12.63,13a14.7,14.7,0,0,0,1.31-1.65,5.3,5.3,0,0,0,1-3A4.13,4.13,0,0,0,14,5.69,3,3,0,0,0,11.6,4.54q-3.18,0-5,4.32l-1.06-.4Q7.69,2.4,12.3,2.4A5.38,5.38,0,0,1,16.17,4a5.11,5.11,0,0,1,1.59,3.82c0,1.93-1.1,3.82-3.32,5.66l-2.31,1.91A35.78,35.78,0,0,0,8.48,18.8c-.07.07-.2.22-.4.46h6.13a3.44,3.44,0,0,0,2.14-.56,4.93,4.93,0,0,0,1.22-1.88Z" style="fill:#03060d"/></svg>