<svg xmlns="http://www.w3.org/2000/svg" width="24" height="24" viewBox="0 0 24 24"><path d="M24,12A12,12,0,1,1,12,0,12,12,0,0,1,24,12Z" style="fill:#cfc9c2"/><path d="M12.78,15.18l-1.07,3.59H2.88V18q.65-.74,2.85-2.91c.86-.88,1.71-1.8,2.57-2.76a8,8,0,0,0,1-1.25,3.91,3.91,0,0,0,.8-2.3,3,3,0,0,0-.72-2A2.27,2.27,0,0,0,7.54,6Q5.14,6,3.8,9.21L3,8.9Q4.59,4.32,8.06,4.33A4,4,0,0,1,11,5.5,3.81,3.81,0,0,1,12.2,8.38q0,2.17-2.55,4.26L7.93,14.08a27.9,27.9,0,0,0-2.72,2.61,1.6,1.6,0,0,0-.31.36H9.5a2.45,2.45,0,0,0,1.62-.46A3.59,3.59,0,0,0,12,15.18ZM12.66,12A11.06,11.06,0,0,1,13.76,7q1.44-2.82,3.89-2.82a4.24,4.24,0,0,1,3.77,2.42,9.06,9.06,0,0,1,1.11,4.54,10.73,10.73,0,0,1-1.11,4.9c-1,1.84-2.24,2.76-3.86,2.76a4.22,4.22,0,0,1-3.74-2.36A8.73,8.73,0,0,1,12.66,12Zm2.08-.82a15.52,15.52,0,0,0,.49,4.1c.49,1.89,1.31,2.83,2.45,2.83,1.86,0,2.79-1.94,2.79-5.8q0-7.17-3-7.17-2.7,0-2.7,5.58Z" style="fill:#03060d"/></svg>