<svg xmlns="http://www.w3.org/2000/svg" width="24" height="24" viewBox="0 0 24 24"><path d="M20.48,3.51a12,12,0,0,1-17,17" style="fill:#c1b5ad"/><path d="M3.51,20.49a12,12,0,0,1,17-17" style="fill:#cfc9c2"/><path d="M10.48,10,9.79,12.3H4.07v-.49c.28-.31.89-.94,1.83-1.88C6.46,9.37,7,8.77,7.58,8.14a9.24,9.24,0,0,0,.64-.8,2.56,2.56,0,0,0,.49-1.47,2,2,0,0,0-.45-1.3A1.47,1.47,0,0,0,7.08,4c-1,0-1.85.7-2.43,2.1l-.52-.2C4.83,4,5.92,3,7.42,3a2.62,2.62,0,0,1,1.88.75,2.47,2.47,0,0,1,.77,1.86A3.67,3.67,0,0,1,8.46,8.33l-1.12.93a17.54,17.54,0,0,0-1.78,1.68s-.1.11-.19.23h3a1.65,1.65,0,0,0,1-.28A2.33,2.33,0,0,0,10,10Z" style="fill:#03060d"/><path d="M21.51,15.84a1.33,1.33,0,0,1-.71,1.32,6.19,6.19,0,0,1-1.3.28c-.47.08-.7.26-.7.55v1.19c0,.05,0,.2,0,.46l.05.47a4.06,4.06,0,0,1-.11.72l-.65.14a3.44,3.44,0,0,1-.11-.61,1.22,1.22,0,0,1,0-.22.79.79,0,0,0,0-.22,2.52,2.52,0,0,0-.18-.57h-.23a.27.27,0,0,0,0,.19,1.31,1.31,0,0,1,0,.42l-.69.48c-.07,0-.09,0-.07,0V19.36q0-.08-.15-.06H16.6l-.17,1.39h-.51c-.06-.33-.19-.81-.36-1.45h-.12l-.18.56a1,1,0,0,0,0,.23,1.58,1.58,0,0,1,0,.23s0,.1,0,.22l-.05.35a.09.09,0,0,1-.07,0,.65.65,0,0,1-.59-.22,1,1,0,0,1-.12-.62l.12-1.77a.36.36,0,0,1,0-.11.36.36,0,0,0,0-.11,1.31,1.31,0,0,0-.25-.47l-.46-.1-1-.21c-.68-.12-1-.67-1-1.63A4.43,4.43,0,0,1,13.71,12c0,.26.14.61.25,1.06l.58.13.9.32a7.45,7.45,0,0,1-1.08-.81,1.54,1.54,0,0,1-.25-1c0-.11.19-.24.56-.39a3.78,3.78,0,0,1,.75-.23A10.29,10.29,0,0,1,16.65,11a4.48,4.48,0,0,1,3,1,4.6,4.6,0,0,1-1.26.91,2.56,2.56,0,0,0,1-.28c.45-.2.64-.29.57-.29s.24.15.47.47a6.51,6.51,0,0,1,.43.63,5.49,5.49,0,0,1,.63,1.81c0,.23,0,.39,0,.49Zm-5.64.26a1.72,1.72,0,0,0-.56-1.2,1.63,1.63,0,0,0-1.18-.57,1.28,1.28,0,0,0-1,.48,1.53,1.53,0,0,0-.43,1,.61.61,0,0,0,.49.65,3.49,3.49,0,0,0,.87.11h.81C15.54,16.63,15.87,16.46,15.87,16.1Zm1.6,1.83v-.46c-.07-.12-.14-.26-.2-.39a6.94,6.94,0,0,0-.33-.83L16.78,18q0,.21-.09.21a.12.12,0,0,1-.09,0c-.07-1-.1-1.49-.1-1.35v-.52a.09.09,0,0,0-.07,0,2.27,2.27,0,0,0-.51,1.66,1.52,1.52,0,0,0,.12.78,1.3,1.3,0,0,0,.27-.1,1.06,1.06,0,0,1,.34,0,1.68,1.68,0,0,1,.67.18C17.42,18.73,17.47,18.46,17.47,17.93Zm3.33-2a1.51,1.51,0,0,0-.44-1.06,1.38,1.38,0,0,0-1-.47,1.56,1.56,0,0,0-1.15.57,1.71,1.71,0,0,0-.54,1.18c0,.35.17.52.5.52h1.69C20.48,16.61,20.8,16.36,20.8,15.88Z" style="fill:#03060d"/></svg>