<svg xmlns="http://www.w3.org/2000/svg" width="24" height="24" viewBox="0 0 24 24"><path d="M20.48,3.51a12,12,0,0,1-17,17" style="fill:#9cc395"/><path d="M3.51,20.49a12,12,0,0,1,17-17" style="fill:#cfc9c2"/><path d="M10.48,10,9.79,12.3H4.07v-.49c.28-.31.89-.94,1.83-1.88C6.46,9.37,7,8.77,7.58,8.14a9.24,9.24,0,0,0,.64-.8,2.56,2.56,0,0,0,.49-1.47,2,2,0,0,0-.45-1.3A1.47,1.47,0,0,0,7.08,4c-1,0-1.85.7-2.43,2.1l-.52-.2C4.83,4,5.92,3,7.42,3a2.62,2.62,0,0,1,1.88.75,2.47,2.47,0,0,1,.77,1.86A3.67,3.67,0,0,1,8.46,8.33l-1.12.93a17.54,17.54,0,0,0-1.78,1.68s-.1.11-.19.23h3a1.65,1.65,0,0,0,1-.28A2.33,2.33,0,0,0,10,10Z" style="fill:#03060d"/><path d="M21.48,16.23a.7.7,0,0,1-.21.49.67.67,0,0,1-.48.22.68.68,0,0,1-.64-.41l-.64,0a3.5,3.5,0,0,0-.8.18A2.31,2.31,0,0,0,18,17a1.66,1.66,0,0,0-.24.77,4.05,4.05,0,0,0-.08.72,1,1,0,0,0,.11.54,1,1,0,0,0,.48.28l.44.13H19a1.22,1.22,0,0,1,.37.05c.18.06.26.13.23.22a2.17,2.17,0,0,0-.67.08l.38.19c0,.11-.15.16-.46.16a1.19,1.19,0,0,1-.33-.05,1.15,1.15,0,0,0-.28-.05h-.18a2.5,2.5,0,0,1-.08.4,1,1,0,0,1-.54-.27,1.21,1.21,0,0,0-.4-.26s-.13.09-.23.26a.89.89,0,0,0-.15.36.79.79,0,0,1-.3-.36l-.12-.35q-.14,0-.51.57h-.06s-.09-.22-.21-.57a2.58,2.58,0,0,0-.79-.14,3,3,0,0,0-.54.08l-.38,0a2.76,2.76,0,0,1,.47-.32A1.63,1.63,0,0,1,15,19.1h.11l.11,0a1.14,1.14,0,0,0,.31-.1c.14-.07.22-.13.24-.19a1.63,1.63,0,0,0,0-.42,1.53,1.53,0,0,0-.4-1.16,2.37,2.37,0,0,0-1.17-.49,1.11,1.11,0,0,1-1.23.78.86.86,0,0,1-.65-.4,1.16,1.16,0,0,1-.33-.72,1,1,0,0,1,.42-.83,1.05,1.05,0,0,1-.34-.72.91.91,0,0,1,.21-.6.84.84,0,0,1,.55-.3.58.58,0,0,1,.29-.6.73.73,0,0,1-.15-.53,1,1,0,0,1,1.05-1,1.07,1.07,0,0,1,.8.34,1.65,1.65,0,0,1,1.7-1.34,1.6,1.6,0,0,1,1.2.54,1.63,1.63,0,0,1,.19.22c-.11,0-.05,0,.16-.06a3,3,0,0,1,.48-.06,1.33,1.33,0,0,1,.94.39,1.89,1.89,0,0,1,.49.9l.3.08a.53.53,0,0,1,.3.52.83.83,0,0,1-.11.26A1.5,1.5,0,0,1,21.32,15a1.81,1.81,0,0,1-.19.68A.65.65,0,0,1,21.48,16.23Zm-5.6.6v-.18a.75.75,0,0,0-.31-.57,1,1,0,0,0-.62-.26,1.47,1.47,0,0,0-.71.18A2.36,2.36,0,0,1,15.88,16.83Zm-.25-1.69a3.27,3.27,0,0,1-.35-.48c-.38.1-.57.22-.57.34a1.59,1.59,0,0,1,.47.06A1.76,1.76,0,0,0,15.63,15.14Zm.83-.42v-.6l-.39-.06v.21Zm1.77-.38-.61-.28v1.17A1,1,0,0,0,18.23,14.34Zm.75,1.6-.3-.36-.55.38a2.07,2.07,0,0,0-.48.45A4.47,4.47,0,0,1,19,15.94Z" style="fill:#03060d"/></svg>