<svg xmlns="http://www.w3.org/2000/svg" width="24" height="24" viewBox="0 0 24 24"><path d="M20.48,3.51a12,12,0,0,1-17,17" style="fill:#f79f75"/><path d="M3.51,20.49a12,12,0,0,1,17-17" style="fill:#cfc9c2"/><path d="M21.19,17.87a2.4,2.4,0,0,1-2.46,1.47,4.06,4.06,0,0,0-.73.08c-.39.09-.59.21-.59.36a.29.29,0,0,0,.1.16.28.28,0,0,0,.17.09c-.23,0-.07,0,.48,0l1,0a8.2,8.2,0,0,1-4.09.66,2,2,0,0,1-1.61-.83,2.58,2.58,0,0,1-.66-1.73,2.38,2.38,0,0,1,.68-1.72,2.25,2.25,0,0,1,1.69-.7,2.72,2.72,0,0,1,.6.09,2.14,2.14,0,0,0,.49.1,2.81,2.81,0,0,0,1.3-.43,5.19,5.19,0,0,0,.73-.43,2.42,2.42,0,0,1-1,2c-.4.23-.6.46-.6.68a.37.37,0,0,0,.25.34.92.92,0,0,0,.44.1.94.94,0,0,0,.71-.45,1.12,1.12,0,0,0,.31-.82,4.11,4.11,0,0,1,.06-1,1.17,1.17,0,0,1,.2-.41.94.94,0,0,1,.32-.3,1.75,1.75,0,0,1-.09.42,1.71,1.71,0,0,0-.09.43.61.61,0,0,0,.17.48c.16-.06.31-.27.44-.63a2.36,2.36,0,0,0,.2-.79,1.77,1.77,0,0,1-1.13-.53,1.49,1.49,0,0,1-.54-1.1.63.63,0,0,1,0-.19l.25.39c.16.23.28.35.37.35s.16-.12.16-.35a1.5,1.5,0,0,0-.23-.81.8.8,0,0,0-.69-.44,1.44,1.44,0,0,0-.59.21,1.54,1.54,0,0,1-.72.21,6.29,6.29,0,0,1-.87-.25c.91-.15,1.36-.29,1.36-.41,0-.32-.62-.53-1.87-.64l-.67-.06a2.38,2.38,0,0,1,.8-.16c.42,0,.72-.06.89-.06a4,4,0,0,1,4.24,3.24.55.55,0,0,0,.15-.43,2.84,2.84,0,0,0-.22-1l-.27-.68a4.59,4.59,0,0,1,1.15,2.78,2.56,2.56,0,0,1-.32,1.26,5.14,5.14,0,0,1-.79,1,7,7,0,0,0-.78.92,6.85,6.85,0,0,0,1-.33,2.82,2.82,0,0,0,1-.71A1.77,1.77,0,0,1,21.19,17.87Zm-6.12-5.52a.33.33,0,0,1-.28.32l-.37.06a2.08,2.08,0,0,0-.57.77c0-.14-.07-.34-.13-.59a1.19,1.19,0,0,0-.42.22l-.41.3a2.16,2.16,0,0,1,.56-1,1.4,1.4,0,0,1,1-.57C14.86,11.83,15.07,12,15.07,12.35Zm2.44,1.29a.46.46,0,0,1-.26.4.93.93,0,0,1-.51.16.73.73,0,0,1-.6-.38,1.64,1.64,0,0,0-.66-.6.2.2,0,0,1,.16-.07,1,1,0,0,1,.43.19,1.13,1.13,0,0,0,.39.2c.05,0,.12-.07.23-.2a.47.47,0,0,1,.36-.19C17.36,13.15,17.51,13.31,17.51,13.64Z" style="fill:#03060d"/><path d="M10.48,10,9.79,12.3H4.07v-.49c.28-.31.89-.94,1.83-1.88C6.46,9.37,7,8.77,7.58,8.14a9.24,9.24,0,0,0,.64-.8,2.56,2.56,0,0,0,.49-1.47,2,2,0,0,0-.45-1.3A1.47,1.47,0,0,0,7.08,4c-1,0-1.85.7-2.43,2.1l-.52-.19C4.83,4,5.92,3,7.42,3a2.62,2.62,0,0,1,1.88.75,2.47,2.47,0,0,1,.77,1.86A3.67,3.67,0,0,1,8.46,8.33l-1.12.93a17.54,17.54,0,0,0-1.78,1.68s-.1.11-.19.23h3a1.65,1.65,0,0,0,1-.28A2.33,2.33,0,0,0,10,10Z" style="fill:#03060d"/></svg>