<svg xmlns="http://www.w3.org/2000/svg" width="24" height="24" viewBox="0 0 24 24"><path d="M20.48,3.51a12,12,0,0,1-17,17" style="fill:#bbd8e7"/><path d="M3.51,20.49a12,12,0,0,1,17-17" style="fill:#cfc9c2"/><path d="M18.41,20.08a3.19,3.19,0,0,1-2.38,1A3.17,3.17,0,0,1,13.5,20a3.94,3.94,0,0,1-.88-2.65,7.28,7.28,0,0,1,1.5-3.94A15.15,15.15,0,0,1,17,10.2a8.71,8.71,0,0,0-.24,1.58,3.75,3.75,0,0,0,.67,2.09c.56.81,1,1.41,1.27,1.8a3.59,3.59,0,0,1,.67,2A3.3,3.3,0,0,1,18.41,20.08Zm0-3.69a1.61,1.61,0,0,0-.61-.77.6.6,0,0,1,.05.29,3.77,3.77,0,0,1-.21,1l-.22.69a.54.54,0,0,0,.61.61c.42,0,.64-.28.64-.85A2.6,2.6,0,0,0,18.4,16.39Z" style="fill:#03060d"/><path d="M10.48,10,9.79,12.3H4.07v-.49c.28-.31.89-.94,1.83-1.88C6.46,9.37,7,8.77,7.58,8.14a9.24,9.24,0,0,0,.64-.8,2.56,2.56,0,0,0,.49-1.47,2,2,0,0,0-.45-1.3A1.47,1.47,0,0,0,7.08,4c-1,0-1.85.7-2.43,2.1l-.52-.19C4.83,4,5.92,3,7.42,3a2.62,2.62,0,0,1,1.88.75,2.47,2.47,0,0,1,.77,1.86A3.67,3.67,0,0,1,8.46,8.33l-1.12.93a17.54,17.54,0,0,0-1.78,1.68s-.1.11-.19.23h3a1.65,1.65,0,0,0,1-.28A2.33,2.33,0,0,0,10,10Z" style="fill:#03060d"/></svg>