<svg xmlns="http://www.w3.org/2000/svg" width="24" height="24" viewBox="0 0 24 24"><path d="M20.48,3.51a12,12,0,0,1-17,17" transform="translate(0 0)" style="fill:#f7f5d9"/><path d="M3.51,20.49a12,12,0,0,1,17-17" transform="translate(0 0)" style="fill:#cfc9c2"/><path d="M10.48,10,9.79,12.3H4.07v-.49c.28-.31.89-.94,1.83-1.88C6.46,9.37,7,8.77,7.58,8.14a9.24,9.24,0,0,0,.64-.8,2.56,2.56,0,0,0,.49-1.47,2,2,0,0,0-.45-1.3A1.47,1.47,0,0,0,7.08,4c-1,0-1.85.7-2.43,2.1l-.52-.2C4.83,4,5.92,3,7.42,3a2.62,2.62,0,0,1,1.88.75,2.47,2.47,0,0,1,.77,1.86A3.67,3.67,0,0,1,8.46,8.33l-1.12.93a17.54,17.54,0,0,0-1.78,1.68s-.1.11-.19.23h3a1.65,1.65,0,0,0,1-.28A2.33,2.33,0,0,0,10,10Z" transform="translate(0 0)" style="fill:#03060d"/><path d="M21.12,17.55A4.07,4.07,0,0,0,20,16.66c-.14,0-.28.05-.4.24a.46.46,0,0,1-.55.21,3.24,3.24,0,0,1-.56-.24,1.52,1.52,0,0,0-.36.42.57.57,0,0,0,.13.39c.11.16.21.26.31.28l.26,0H19c.1,0,.11.24,0,.63a9.71,9.71,0,0,1-.67,1.65c0-.94-.15-1.44-.4-1.5a.63.63,0,0,0-.24,0,.83.83,0,0,1-.25,0c-.26-.06-.43-.34-.52-.85a.6.6,0,0,0-.74.47.48.48,0,0,0,.14.47c.14.14.2.24.19.28-.06.23-.49.51-1.29.83l-.88.37a3.27,3.27,0,0,0,.51-.53,1.5,1.5,0,0,0,.36-.61c0-.09-.05-.23-.21-.44a.66.66,0,0,1-.18-.56,1.35,1.35,0,0,1,.29-.51.52.52,0,0,0-.36-.29q-.51-.12-.6.21c0-.15,0,0-.08.35s-.31.38-.76.28a11.51,11.51,0,0,1-1.64-.64c.95,0,1.47-.17,1.54-.46a1.67,1.67,0,0,1,0-.33c0-.27.28-.47.74-.59a.63.63,0,0,0-.48-.74s-.17.05-.35.2a.55.55,0,0,1-.45.18c-.21-.05-.43-.34-.65-.87-.1-.26-.26-.65-.47-1.17l.52.45a1.67,1.67,0,0,0,.58.34c.12,0,.27-.05.44-.24a.54.54,0,0,1,.53-.21l.49.28a1.24,1.24,0,0,0,.38-.5.59.59,0,0,0-.11-.4c-.09-.16-.19-.26-.29-.28a.66.66,0,0,0-.21,0h-.21c-.16,0-.19-.25-.1-.64,0-.11.27-.68.73-1.71a2.54,2.54,0,0,0,0,.77c.05.47.17.72.37.77a.53.53,0,0,0,.22,0,.94.94,0,0,1,.27,0,.58.58,0,0,1,.41.46l.11.4a.63.63,0,0,0,.5-.09.64.64,0,0,0,.3-.42.52.52,0,0,0-.14-.5c-.13-.13-.2-.23-.18-.28s.4-.42,1.08-.72a6.3,6.3,0,0,1,1-.39,2.28,2.28,0,0,0-.82,1,.58.58,0,0,0,.12.44,1.19,1.19,0,0,1,.23.43,1.21,1.21,0,0,1-.22.81,1.09,1.09,0,0,0,.47.37.35.35,0,0,0,.47-.3,1.3,1.3,0,0,0,0-.25c0-.15,0-.23,0-.24s.31-.12.76,0a13.66,13.66,0,0,1,1.67.65l-.92,0c-.37,0-.57.09-.6.22a1.5,1.5,0,0,0,0,.33,1.64,1.64,0,0,1,0,.34.44.44,0,0,1-.32.28l-.51.21a2.76,2.76,0,0,0,.12.39.5.5,0,0,0,.32.24c.1,0,.22-.05.35-.21a.44.44,0,0,1,.48-.17c.23.05.45.33.64.84C20.72,16.54,20.89,17,21.12,17.55ZM18.41,16.1a2.12,2.12,0,0,0-1.56-2.54,2.05,2.05,0,0,0-1.6.25,2.08,2.08,0,0,0-1,1.3,2,2,0,0,0,.27,1.59,2.14,2.14,0,0,0,1.32.95,2.11,2.11,0,0,0,1.62-.22A2,2,0,0,0,18.41,16.1Zm-.19,0a1.82,1.82,0,0,1-.85,1.18,1.87,1.87,0,0,1-1.45.2A1.87,1.87,0,0,1,15.36,14a1.88,1.88,0,0,1,1.44-.22,1.81,1.81,0,0,1,1.17.86A1.76,1.76,0,0,1,18.22,16.06Z" transform="translate(0 0)" style="fill:#03060d"/></svg>