<svg xmlns="http://www.w3.org/2000/svg" width="24" height="24" viewBox="0 0 24 24"><path d="M24,12A12,12,0,1,1,12,0,12,12,0,0,1,24,12Z" transform="translate(0)" style="fill:#cfc9c2"/><path d="M9.49,12.61,9,11.71l.32-.19c1.24-.76,2.38-1.52,3.41-2.3a3.32,3.32,0,0,0,1.54-2.65,2.19,2.19,0,0,0-.74-1.68,2.51,2.51,0,0,0-1.74-.68q-2.33,0-4.89,2.88L6.1,6.47Q8.79,2.41,12.66,2.4a5,5,0,0,1,2.91.84,3,3,0,0,1,1.36,2.55,3.41,3.41,0,0,1-1,2.27A12.56,12.56,0,0,1,14,9.74l-.39.29a5.46,5.46,0,0,1,.62,0,3.66,3.66,0,0,1,2.92,1.35,4.76,4.76,0,0,1,1.15,3.17,6.32,6.32,0,0,1-2.59,5.14,8.51,8.51,0,0,1-5.52,1.94,7.3,7.3,0,0,1-4.53-1.26l.58-.81a8.18,8.18,0,0,0,3.53.94A6.13,6.13,0,0,0,13.87,19a4.74,4.74,0,0,0,1.8-3.78,3.74,3.74,0,0,0-.91-2.54,3,3,0,0,0-2.36-1.05A5.53,5.53,0,0,0,9.49,12.61Z" transform="translate(0)" style="fill:#03060d"/></svg>