<svg xmlns="http://www.w3.org/2000/svg" width="24" height="24" viewBox="0 0 24 24"><path d="M24,12A12,12,0,1,1,12,0,12,12,0,0,1,24,12Z" transform="translate(0)" style="fill:#cfc9c2"/><path d="M8.39,2.72h7c.9,0,1.43-.1,1.6-.32h1L17.36,5H8.89L8.07,8.81a8.81,8.81,0,0,1,3.27-.74A6.46,6.46,0,0,1,16,9.93a6.23,6.23,0,0,1,1.91,4.64,6.34,6.34,0,0,1-2.49,5.22,8.75,8.75,0,0,1-5.6,1.81A12.45,12.45,0,0,1,6.06,21l.39-1a10.65,10.65,0,0,0,2.75.42,6.2,6.2,0,0,0,4.19-1.57A5,5,0,0,0,15.19,15a4.5,4.5,0,0,0-1.33-3.35,4.61,4.61,0,0,0-3.37-1.31A5.45,5.45,0,0,0,7,11.6l-.65-.13Z" transform="translate(0)" style="fill:#03060d"/></svg>