<svg xmlns="http://www.w3.org/2000/svg" width="24" height="24" viewBox="0 0 24 24"><path d="M24,12A12,12,0,1,1,12,0,12,12,0,0,1,24,12Z" style="fill:#cfc9c2"/><path d="M8.78,10.72a6.33,6.33,0,0,1,4.3-2,4.52,4.52,0,0,1,3.79,1.88,6.57,6.57,0,0,1,1.33,4.15,7.43,7.43,0,0,1-1.55,4.66,5.23,5.23,0,0,1-4.28,2.2,5.72,5.72,0,0,1-4.92-2.66A9.32,9.32,0,0,1,5.8,13.41,11.22,11.22,0,0,1,7.68,7.14a10.2,10.2,0,0,1,5-4.06,10.48,10.48,0,0,1,3.75-.68v1a7.57,7.57,0,0,0-6.28,3.37A9.41,9.41,0,0,0,8.78,10.72Zm-.2,1.94q0,.59,0,1.17A10.82,10.82,0,0,0,9.33,18c.67,1.67,1.65,2.5,2.95,2.5a2.68,2.68,0,0,0,2.52-1.72,7.26,7.26,0,0,0,.65-3.21,8.65,8.65,0,0,0-.62-3.43,2.75,2.75,0,0,0-2.59-1.94Q10.11,10.17,8.58,12.66Z" style="fill:#03060d"/></svg>