<svg xmlns="http://www.w3.org/2000/svg" width="24" height="24" viewBox="0 0 24 24"><path d="M24,12A12,12,0,1,1,12,0,12,12,0,0,1,24,12Z" style="fill:#cfc9c2"/><path d="M9.83,11.87l-.42-.29A10.62,10.62,0,0,1,7,9.54a3.58,3.58,0,0,1-.75-2.26A4.32,4.32,0,0,1,8.09,3.69a6.4,6.4,0,0,1,4-1.29,6.53,6.53,0,0,1,3.78,1.13,3.85,3.85,0,0,1,1.88,3.33c0,1.68-1.18,3-3.52,4.07q4,2,4,5.4a4.72,4.72,0,0,1-1.9,4A6.84,6.84,0,0,1,12,21.6a7,7,0,0,1-4.17-1.23,4.27,4.27,0,0,1-2-3.68A4.44,4.44,0,0,1,8,12.91,17.47,17.47,0,0,1,9.83,11.87Zm1.1.46A4.37,4.37,0,0,0,8,16.5,3.86,3.86,0,0,0,9.2,19.45a4.21,4.21,0,0,0,3,1.12,4.44,4.44,0,0,0,2.8-.89,3,3,0,0,0,1.15-2.47q0-2.39-3.15-3.87Zm2.17-1.91c1.7-.76,2.55-1.89,2.55-3.4a3.15,3.15,0,0,0-1.08-2.49A4,4,0,0,0,11.9,3.6a3.72,3.72,0,0,0-2.29.71A2.4,2.4,0,0,0,8.54,6.38,2.93,2.93,0,0,0,10,8.93q.29.2,2.58,1.26Z" style="fill:#03060d"/></svg>