<svg xmlns="http://www.w3.org/2000/svg" width="24" height="24" viewBox="0 0 24 24"><path d="M24,12A12,12,0,1,1,12,0,12,12,0,0,1,24,12Z" transform="translate(0)" style="fill:#cfc9c2"/><path d="M15.22,13.33a6.36,6.36,0,0,1-4.3,2,4.47,4.47,0,0,1-3.78-1.88A6.51,6.51,0,0,1,5.81,9.32,7.64,7.64,0,0,1,7.36,4.63,5.1,5.1,0,0,1,11.6,2.4a5.7,5.7,0,0,1,4.94,2.68,9.54,9.54,0,0,1,1.65,5.6,10.72,10.72,0,0,1-3,7.74A10.21,10.21,0,0,1,7.56,21.6v-1a9.4,9.4,0,0,0,2.23-.32Q14.44,18.85,15.22,13.33Zm.19-1.94q0-.62,0-1.17a10.81,10.81,0,0,0-.77-4.13C14,4.43,13,3.6,11.69,3.6A2.63,2.63,0,0,0,9.2,5.31a7.25,7.25,0,0,0-.64,3.2,8.62,8.62,0,0,0,.61,3.43,2.75,2.75,0,0,0,2.59,1.94Q13.89,13.88,15.41,11.39Z" transform="translate(0)" style="fill:#03060d"/></svg>