<svg xmlns="http://www.w3.org/2000/svg" width="24" height="24" viewBox="0 0 24 24"><path d="M24,12A12,12,0,1,1,12,0,12,12,0,0,1,24,12Z" style="fill:#c1b5ad"/><path d="M21.77,11.67a2.76,2.76,0,0,1-1.45,2.71,13.93,13.93,0,0,1-2.65.57q-1.44.24-1.44,1.11V18.5q0,.15.09.93l.09,1a8.33,8.33,0,0,1-.21,1.47l-1.33.27a5.87,5.87,0,0,1-.24-1.23,2.13,2.13,0,0,1,.08-.45,2,2,0,0,0,.07-.45,5.11,5.11,0,0,0-.37-1.18h-.47a.6.6,0,0,0-.06.39,2.91,2.91,0,0,1,.09.88l-1.41,1q-.21-.06-.15-.06V18.86c0-.1-.14-.14-.31-.12h-.36l-.36,2.83a8.61,8.61,0,0,1-1,0c-.14-.66-.39-1.64-.75-2.95H9.37L9,19.77a2.52,2.52,0,0,0,.07.46,3,3,0,0,1,.08.47,3.94,3.94,0,0,1-.06.45L9,21.87a.25.25,0,0,1-.16.06,1.35,1.35,0,0,1-1.2-.45,2,2,0,0,1-.24-1.26l.24-3.62a.69.69,0,0,1,.06-.24.69.69,0,0,0,.06-.21,2.41,2.41,0,0,0-.51-1L6.33,15l-2-.42c-1.39-.26-2.08-1.38-2.08-3.34A9.05,9.05,0,0,1,5.85,3.9c.09.55.27,1.27.51,2.17l1.17.27L9.37,7a17.93,17.93,0,0,1-2.2-1.65,3.14,3.14,0,0,1-.51-2q0-.33,1.14-.78a6.57,6.57,0,0,1,1.54-.48,20.87,20.87,0,0,1,2.49-.21,9.21,9.21,0,0,1,6.08,1.92,9.12,9.12,0,0,1-2.58,1.87,5.31,5.31,0,0,0,2.1-.57c.93-.4,1.32-.6,1.18-.6q.24,0,1,1a13.35,13.35,0,0,1,.87,1.29,11.41,11.41,0,0,1,1.3,3.7c0,.47,0,.8,0,1Zm-11.53.54A3.5,3.5,0,0,0,9.11,9.76,3.32,3.32,0,0,0,6.69,8.6a2.63,2.63,0,0,0-2,1,3.13,3.13,0,0,0-.87,2.15,1.27,1.27,0,0,0,1,1.33,7.51,7.51,0,0,0,1.78.21H8.22C9.57,13.28,10.24,12.93,10.24,12.21Zm3.28,3.73V15l-.42-.81a15.34,15.34,0,0,0-.66-1.69L12.1,16q0,.42-.18.42a.24.24,0,0,1-.18-.06c-.14-2.12-.21-3.05-.21-2.77v-1a.18.18,0,0,0-.15-.09,4.77,4.77,0,0,0-1,3.4,3.15,3.15,0,0,0,.24,1.6,2.69,2.69,0,0,0,.54-.21,2.2,2.2,0,0,1,.69-.06,3.53,3.53,0,0,1,1.39.36C13.42,17.57,13.52,17,13.52,15.94Zm6.8-4.19a3.08,3.08,0,0,0-.9-2.17,2.81,2.81,0,0,0-2.08-.95A3.21,3.21,0,0,0,15,9.79a3.51,3.51,0,0,0-1.1,2.42.92.92,0,0,0,1,1h3.47C19.67,13.24,20.32,12.74,20.32,11.75Z" style="fill:#03060d"/></svg>