<svg xmlns="http://www.w3.org/2000/svg" width="24" height="24" viewBox="0 0 24 24"><path d="M20.48,3.51a12,12,0,0,1-17,17" style="fill:#9cc395"/><path d="M3.51,20.49a12,12,0,0,1,17-17" style="fill:#c1b5ad"/><path d="M12.78,6.75a1.32,1.32,0,0,1-.71,1.32,6,6,0,0,1-1.29.28c-.47.08-.71.26-.71.55v1.19c0,.05,0,.2,0,.46l.05.47a4.9,4.9,0,0,1-.1.72l-.65.14a2.91,2.91,0,0,1-.12-.61.79.79,0,0,1,0-.22,1.22,1.22,0,0,0,0-.22,2.7,2.7,0,0,0-.18-.58H9a.32.32,0,0,0,0,.2,1.7,1.7,0,0,1,.05.42c-.17.12-.4.28-.7.47l-.07,0v-1s-.07-.07-.15-.06H7.87L7.7,11.59H7.2c-.07-.32-.19-.8-.37-1.44H6.71l-.18.56a2.23,2.23,0,0,0,0,.23,1,1,0,0,1,0,.23,1.94,1.94,0,0,1,0,.22l0,.35a.09.09,0,0,1-.07,0,.66.66,0,0,1-.59-.22,1,1,0,0,1-.12-.62l.12-1.77a.26.26,0,0,1,0-.11.36.36,0,0,0,0-.11,1.16,1.16,0,0,0-.25-.47l-.46-.1-1-.21c-.68-.13-1-.67-1-1.63A4.41,4.41,0,0,1,5,3c0,.26.13.61.25,1.06l.57.13.9.32a8.08,8.08,0,0,1-1.07-.81,1.48,1.48,0,0,1-.26-1c0-.11.19-.24.56-.39a3.1,3.1,0,0,1,.76-.23,10.16,10.16,0,0,1,1.22-.11,4.51,4.51,0,0,1,3,1,4.68,4.68,0,0,1-1.27.91,2.56,2.56,0,0,0,1-.28c.45-.2.64-.29.57-.29.08,0,.24.15.48.47a6.87,6.87,0,0,1,.42.63,5.43,5.43,0,0,1,.64,1.81c0,.23,0,.39,0,.49ZM7.14,7a1.75,1.75,0,0,0-.55-1.2A1.65,1.65,0,0,0,5.4,5.24a1.31,1.31,0,0,0-1,.48,1.57,1.57,0,0,0-.43,1,.62.62,0,0,0,.49.65,3.63,3.63,0,0,0,.87.11h.81C6.81,7.54,7.14,7.37,7.14,7Zm1.6,1.83V8.38L8.54,8a7.69,7.69,0,0,0-.33-.82L8.05,8.88q0,.21-.09.21a.12.12,0,0,1-.09,0c-.06-1-.1-1.49-.1-1.36V7.19s0-.05-.07-.05a2.32,2.32,0,0,0-.5,1.67,1.68,1.68,0,0,0,.11.78,1.3,1.3,0,0,0,.27-.1,1.06,1.06,0,0,1,.34,0,1.87,1.87,0,0,1,.68.17C8.69,9.63,8.74,9.37,8.74,8.84Zm3.33-2a1.47,1.47,0,0,0-.44-1.06,1.32,1.32,0,0,0-1-.47,1.58,1.58,0,0,0-1.16.57A1.69,1.69,0,0,0,8.92,7c0,.35.17.52.5.52h1.7C11.76,7.52,12.07,7.27,12.07,6.79Z" style="fill:#03060d"/><path d="M21.48,16.23a.7.7,0,0,1-.21.49.67.67,0,0,1-.48.22.68.68,0,0,1-.64-.41l-.64,0a3.5,3.5,0,0,0-.8.18A2.31,2.31,0,0,0,18,17a1.66,1.66,0,0,0-.24.77,4.05,4.05,0,0,0-.08.72,1,1,0,0,0,.11.54,1,1,0,0,0,.48.28l.44.13H19a1.22,1.22,0,0,1,.37.05c.18.06.26.13.23.22a2.17,2.17,0,0,0-.67.08l.38.19c0,.11-.15.16-.46.16a1.19,1.19,0,0,1-.33-.05,1.15,1.15,0,0,0-.28-.05h-.18a2.5,2.5,0,0,1-.08.4,1,1,0,0,1-.54-.27,1.21,1.21,0,0,0-.4-.26s-.13.09-.23.26a.89.89,0,0,0-.15.36.79.79,0,0,1-.3-.36l-.12-.35q-.14,0-.51.57h-.06s-.09-.22-.21-.57a2.58,2.58,0,0,0-.79-.14,3,3,0,0,0-.54.08l-.38,0a2.76,2.76,0,0,1,.47-.32A1.63,1.63,0,0,1,15,19.1h.11l.11,0a1.14,1.14,0,0,0,.31-.1c.14-.07.22-.13.24-.19a1.63,1.63,0,0,0,0-.42,1.53,1.53,0,0,0-.4-1.16,2.37,2.37,0,0,0-1.18-.49,1.1,1.1,0,0,1-1.22.78.86.86,0,0,1-.65-.4,1.16,1.16,0,0,1-.33-.72,1,1,0,0,1,.42-.83,1.05,1.05,0,0,1-.34-.72.91.91,0,0,1,.21-.6.84.84,0,0,1,.55-.3.58.58,0,0,1,.29-.6.73.73,0,0,1-.15-.53,1,1,0,0,1,1.05-1,1.07,1.07,0,0,1,.8.34,1.65,1.65,0,0,1,1.7-1.34,1.6,1.6,0,0,1,1.2.54,1.63,1.63,0,0,1,.19.22c-.11,0-.05,0,.16-.06a3,3,0,0,1,.48-.06,1.33,1.33,0,0,1,.94.39,1.89,1.89,0,0,1,.49.9l.3.08a.53.53,0,0,1,.3.52.83.83,0,0,1-.11.26A1.5,1.5,0,0,1,21.32,15a1.81,1.81,0,0,1-.19.68A.65.65,0,0,1,21.48,16.23Zm-5.6.6v-.18a.75.75,0,0,0-.31-.57,1,1,0,0,0-.62-.26,1.47,1.47,0,0,0-.71.18A2.36,2.36,0,0,1,15.88,16.83Zm-.25-1.69a3.27,3.27,0,0,1-.35-.48c-.38.1-.57.22-.57.34a1.59,1.59,0,0,1,.47.06A1.76,1.76,0,0,0,15.63,15.14Zm.83-.42v-.6l-.39-.06v.21Zm1.77-.38-.61-.28v1.17A1,1,0,0,0,18.23,14.34Zm.75,1.6-.3-.36-.55.38a2.07,2.07,0,0,0-.48.45A4.47,4.47,0,0,1,19,15.94Z" style="fill:#03060d"/></svg>