<svg xmlns="http://www.w3.org/2000/svg" width="24" height="24" viewBox="0 0 24 24"><path d="M20.48,3.51a12,12,0,0,1-17,17" transform="translate(0 0)" style="fill:#f79f75"/><path d="M3.51,20.49a12,12,0,0,1,17-17" transform="translate(0 0)" style="fill:#c1b5ad"/><path d="M21.19,17.87a2.4,2.4,0,0,1-2.46,1.47,4.06,4.06,0,0,0-.73.08c-.39.09-.59.21-.59.36a.29.29,0,0,0,.1.16.28.28,0,0,0,.17.09c-.23,0-.07,0,.48,0l1,0a8.2,8.2,0,0,1-4.09.66,2,2,0,0,1-1.61-.83,2.58,2.58,0,0,1-.66-1.72,2.39,2.39,0,0,1,.68-1.73,2.25,2.25,0,0,1,1.69-.7,2.72,2.72,0,0,1,.6.09,2.14,2.14,0,0,0,.49.1,2.81,2.81,0,0,0,1.3-.43,6.3,6.3,0,0,0,.73-.42,2.41,2.41,0,0,1-1,2c-.4.23-.6.46-.6.68a.37.37,0,0,0,.25.34.92.92,0,0,0,.44.1.94.94,0,0,0,.71-.45,1.11,1.11,0,0,0,.31-.81,4.16,4.16,0,0,1,.06-1,1.17,1.17,0,0,1,.2-.41.94.94,0,0,1,.32-.3,1.75,1.75,0,0,1-.09.42,1.71,1.71,0,0,0-.09.43.61.61,0,0,0,.17.48c.16-.06.31-.27.44-.63a2.36,2.36,0,0,0,.2-.79,1.72,1.72,0,0,1-1.13-.53,1.49,1.49,0,0,1-.54-1.1.63.63,0,0,1,0-.19l.25.39c.16.23.28.35.37.35s.16-.12.16-.35a1.5,1.5,0,0,0-.23-.81.8.8,0,0,0-.69-.44,1.44,1.44,0,0,0-.59.21,1.54,1.54,0,0,1-.72.21,6.29,6.29,0,0,1-.87-.25c.91-.15,1.36-.29,1.36-.41,0-.32-.62-.53-1.87-.64l-.67-.06a2.24,2.24,0,0,1,.8-.15c.42-.05.72-.08.89-.08a4,4,0,0,1,4.24,3.25.55.55,0,0,0,.15-.43,2.84,2.84,0,0,0-.22-1l-.27-.68a4.59,4.59,0,0,1,1.15,2.78,2.56,2.56,0,0,1-.32,1.26,4.84,4.84,0,0,1-.79,1,7,7,0,0,0-.78.92,6.85,6.85,0,0,0,1-.33,2.82,2.82,0,0,0,1-.71A1.77,1.77,0,0,1,21.19,17.87Zm-6.12-5.52a.33.33,0,0,1-.28.32l-.37.06a2.08,2.08,0,0,0-.57.77c0-.14-.07-.34-.13-.59a1.19,1.19,0,0,0-.42.22l-.41.3a2.16,2.16,0,0,1,.56-1,1.4,1.4,0,0,1,1-.57C14.86,11.83,15.07,12,15.07,12.35Zm2.44,1.29a.46.46,0,0,1-.26.4.93.93,0,0,1-.51.16.73.73,0,0,1-.6-.38,1.64,1.64,0,0,0-.66-.6.2.2,0,0,1,.16-.07,1,1,0,0,1,.43.19,1,1,0,0,0,.39.2c.05,0,.12-.06.23-.2a.47.47,0,0,1,.36-.19C17.36,13.15,17.51,13.31,17.51,13.64Z" transform="translate(0 0)" style="fill:#03060d"/><path d="M12.78,6.75a1.32,1.32,0,0,1-.71,1.32,6,6,0,0,1-1.29.28c-.47.08-.71.26-.71.55v1.19c0,.05,0,.2,0,.46l.05.47a4.9,4.9,0,0,1-.1.72l-.65.14a2.91,2.91,0,0,1-.12-.61.79.79,0,0,1,0-.22,1.22,1.22,0,0,0,0-.22,2.7,2.7,0,0,0-.18-.58H9a.32.32,0,0,0,0,.2,1.7,1.7,0,0,1,.05.42c-.17.12-.4.28-.7.47l-.07,0v-1s-.07-.07-.15-.06H7.87L7.7,11.59H7.2c-.07-.32-.19-.8-.37-1.44H6.71l-.18.56a2.23,2.23,0,0,0,0,.23,1,1,0,0,1,0,.23,1.94,1.94,0,0,1,0,.22l0,.35a.09.09,0,0,1-.07,0,.66.66,0,0,1-.59-.22,1,1,0,0,1-.12-.62l.12-1.77a.26.26,0,0,1,0-.11.36.36,0,0,0,0-.11,1.16,1.16,0,0,0-.25-.47l-.46-.1-1-.21c-.68-.13-1-.67-1-1.63A4.41,4.41,0,0,1,5,3c0,.26.13.61.25,1.06l.57.13.9.32a8.08,8.08,0,0,1-1.07-.81,1.48,1.48,0,0,1-.26-1c0-.11.19-.24.56-.39a3.1,3.1,0,0,1,.76-.23,10.16,10.16,0,0,1,1.22-.11,4.51,4.51,0,0,1,3,1,4.68,4.68,0,0,1-1.27.91,2.56,2.56,0,0,0,1-.28c.45-.2.64-.29.57-.29.08,0,.24.15.48.47a6.87,6.87,0,0,1,.42.63,5.43,5.43,0,0,1,.64,1.81c0,.23,0,.39,0,.49ZM7.14,7a1.75,1.75,0,0,0-.55-1.2A1.65,1.65,0,0,0,5.4,5.24a1.31,1.31,0,0,0-1,.48,1.57,1.57,0,0,0-.43,1,.62.62,0,0,0,.49.65,3.63,3.63,0,0,0,.87.11h.81C6.81,7.54,7.14,7.37,7.14,7Zm1.6,1.83V8.38L8.54,8a7.69,7.69,0,0,0-.33-.82L8.05,8.88q0,.21-.09.21a.12.12,0,0,1-.09,0c-.06-1-.1-1.49-.1-1.36V7.19s0-.05-.07-.05a2.32,2.32,0,0,0-.5,1.67,1.68,1.68,0,0,0,.11.78,1.3,1.3,0,0,0,.27-.1,1.06,1.06,0,0,1,.34,0,1.87,1.87,0,0,1,.68.17C8.69,9.63,8.74,9.37,8.74,8.84Zm3.33-2a1.47,1.47,0,0,0-.44-1.06,1.32,1.32,0,0,0-1-.47,1.58,1.58,0,0,0-1.16.57A1.69,1.69,0,0,0,8.92,7c0,.35.17.52.5.52h1.7C11.75,7.52,12.07,7.27,12.07,6.79Z" transform="translate(0 0)" style="fill:#03060d"/></svg>