<svg xmlns="http://www.w3.org/2000/svg" width="24" height="20" viewBox="0 0 24 20"><path d="M15.23,2c-7.36.34.85,6.6-3.3,9.9h0l-.06,0C9,13.1,5.73,8.38,5.64,13.34c1.53-2.3,2.23-.06,4.75-.2-1.22,1.62-.62,4.34-2.66,4.78-3.73.81-6.46-3.73-6.24-6.57C2,5,7,2.15,11.87,2.45A9.94,9.94,0,0,0,0,12.08c.19,6.38,3.57,9.5,8.77,9.92,7.36-.34-.85-6.6,3.3-9.9h0l.06,0c2.9-1.18,6.14,3.54,6.23-1.42-1.53,2.3-2.23.06-4.75.2,1.22-1.62.62-4.34,2.66-4.78,3.73-.81,6.46,3.73,6.24,6.57-.51,6.33-5.46,9.2-10.38,8.9A9.94,9.94,0,0,0,24,11.92C23.81,5.54,20.43,2.42,15.23,2Z" transform="translate(0 -2)" style="fill-rule:evenodd"/></svg>