<svg xmlns="http://www.w3.org/2000/svg" width="23.67" height="23.67" viewBox="0 0 23.67 23.67"><path d="M24,12.05A11.84,11.84,0,1,1,12.16.21,11.84,11.84,0,0,1,24,12.05Z" transform="translate(-0.33 -0.21)" style="fill:#9cc395"/><path d="M22.52,13.52a1.52,1.52,0,0,1-.45,1.07,1.48,1.48,0,0,1-2.44-.42l-1.39-.06a7.74,7.74,0,0,0-1.75.39,4.37,4.37,0,0,0-1.6.62,3.67,3.67,0,0,0-.53,1.65,10.6,10.6,0,0,0-.18,1.57,2.11,2.11,0,0,0,.26,1.17,1.89,1.89,0,0,0,1,.62,9.36,9.36,0,0,0,1,.28l.39,0h.35a2.88,2.88,0,0,1,.8.12c.39.12.56.28.5.47a4.63,4.63,0,0,0-1.45.18l.83.41c0,.24-.33.36-1,.36a3.1,3.1,0,0,1-.73-.12,3.11,3.11,0,0,0-.6-.12h-.39a6.56,6.56,0,0,1-.18.89A2.24,2.24,0,0,1,13.77,22a2.25,2.25,0,0,0-.86-.56c-.12,0-.28.18-.5.56a2,2,0,0,0-.33.77,1.7,1.7,0,0,1-.65-.77,7.75,7.75,0,0,0-.26-.77c-.2,0-.56.43-1.1,1.24H9.93c0-.06-.19-.47-.45-1.24a5.51,5.51,0,0,0-1.71-.3,6.09,6.09,0,0,0-1.19.18L5.76,21a6.6,6.6,0,0,1,1-.68,3.49,3.49,0,0,1,1.54-.59l.24,0,.23,0a1.78,1.78,0,0,0,.67-.22c.3-.15.48-.28.53-.4a3.34,3.34,0,0,0,.07-.92,3.28,3.28,0,0,0-.88-2.51A5,5,0,0,0,6.64,14.7c-.31,1.13-1.2,1.69-2.66,1.69a2,2,0,0,1-1.42-.86A2.57,2.57,0,0,1,1.85,14a2.18,2.18,0,0,1,.92-1.8A2.27,2.27,0,0,1,2,10.59a2,2,0,0,1,.46-1.3,1.76,1.76,0,0,1,1.2-.65,1.23,1.23,0,0,1,.62-1.3A1.6,1.6,0,0,1,4,6.19,2.22,2.22,0,0,1,6.26,3.91,2.26,2.26,0,0,1,8,4.65a3.61,3.61,0,0,1,3.7-2.93,3.48,3.48,0,0,1,2.6,1.19,3.62,3.62,0,0,1,.42.47c-.24,0-.12,0,.35-.14a7.32,7.32,0,0,1,1-.13,2.86,2.86,0,0,1,2,.86,4.12,4.12,0,0,1,1.06,1.95,4,4,0,0,1,.65.18,1.14,1.14,0,0,1,.65,1.12,1.55,1.55,0,0,1-.23.56,3.28,3.28,0,0,1,1.89,3,4,4,0,0,1-.42,1.48A1.41,1.41,0,0,1,22.52,13.52Zm-12.18,1.3v-.38a1.58,1.58,0,0,0-.67-1.24,2.06,2.06,0,0,0-1.34-.57A3.18,3.18,0,0,0,6.79,13C7.84,13,9,13.56,10.34,14.82Zm-.53-3.66a8,8,0,0,1-.77-1c-.83.22-1.24.46-1.24.74a3.46,3.46,0,0,1,1,.13A4.84,4.84,0,0,0,9.81,11.16Zm1.8-.92V8.94a8,8,0,0,0-.86-.12v.44Zm3.85-.83-1.33-.59v2.54A2.15,2.15,0,0,0,15.46,9.41Zm1.62,3.49-.65-.8-1.2.84a6.06,6.06,0,0,0-1.05,1A10.37,10.37,0,0,1,17.08,12.9Z" transform="translate(-0.33 -0.21)" style="fill:#03060d"/></svg>