<svg xmlns="http://www.w3.org/2000/svg" width="24" height="24" viewBox="0 0 24 24"><path d="M20.48,3.51a12,12,0,0,1-17,17" style="fill:#bbd8e7"/><path d="M3.51,20.49a12,12,0,0,1,17-17" style="fill:#9cc395"/><path d="M18.41,20.08a3.19,3.19,0,0,1-2.38,1A3.17,3.17,0,0,1,13.5,20a3.94,3.94,0,0,1-.88-2.65,7.28,7.28,0,0,1,1.5-3.94A15.15,15.15,0,0,1,17,10.2a8.71,8.71,0,0,0-.24,1.58,3.75,3.75,0,0,0,.67,2.09c.56.81,1,1.41,1.27,1.8a3.59,3.59,0,0,1,.67,2A3.3,3.3,0,0,1,18.41,20.08Zm0-3.69a1.61,1.61,0,0,0-.61-.77.6.6,0,0,1,.05.29,3.77,3.77,0,0,1-.21,1l-.22.69a.53.53,0,0,0,.6.61c.43,0,.65-.28.65-.85A2.6,2.6,0,0,0,18.4,16.39Z" style="fill:#03060d"/><path d="M12.39,8.23a.7.7,0,0,1-.21.49.67.67,0,0,1-.48.22.68.68,0,0,1-.64-.41l-.64,0a3.5,3.5,0,0,0-.8.18A2.31,2.31,0,0,0,8.88,9a1.66,1.66,0,0,0-.24.77,4.05,4.05,0,0,0-.08.72,1,1,0,0,0,.11.54,1,1,0,0,0,.48.28l.44.13h.34a1.22,1.22,0,0,1,.37,0c.18.05.26.13.23.22a2.17,2.17,0,0,0-.67.08l.38.19c0,.11-.15.16-.46.16A1.19,1.19,0,0,1,9.45,12L9.17,12H9a4,4,0,0,1-.08.41,1,1,0,0,1-.55-.27A1.12,1.12,0,0,0,8,11.86s-.13.09-.23.26a.89.89,0,0,0-.15.36.79.79,0,0,1-.3-.36l-.12-.35q-.13,0-.51.57H6.6s-.09-.22-.21-.57a2.58,2.58,0,0,0-.79-.14,3,3,0,0,0-.54.08l-.38,0a2.76,2.76,0,0,1,.47-.32,1.63,1.63,0,0,1,.71-.27H6l.11,0a1,1,0,0,0,.3-.1c.14-.07.23-.13.25-.19a1.63,1.63,0,0,0,0-.42,1.49,1.49,0,0,0-.41-1.16,2.29,2.29,0,0,0-1.17-.49,1.1,1.1,0,0,1-1.22.78.86.86,0,0,1-.65-.4,1.16,1.16,0,0,1-.33-.72A1,1,0,0,1,3.3,7.6,1,1,0,0,1,3,6.88a.91.91,0,0,1,.21-.6A.84.84,0,0,1,3.72,6,.58.58,0,0,1,4,5.38a.73.73,0,0,1-.15-.53,1,1,0,0,1,1.05-1,1.07,1.07,0,0,1,.8.34A1.65,1.65,0,0,1,7.41,2.8a1.61,1.61,0,0,1,1.2.54,1.63,1.63,0,0,1,.19.22c-.11,0-.05,0,.16-.06a3,3,0,0,1,.48-.06,1.33,1.33,0,0,1,.94.39,1.89,1.89,0,0,1,.49.9l.3.08a.53.53,0,0,1,.3.52.83.83,0,0,1-.11.26A1.5,1.5,0,0,1,12.23,7a1.81,1.81,0,0,1-.19.68A.65.65,0,0,1,12.39,8.23Zm-5.6.6V8.65a.75.75,0,0,0-.31-.57,1,1,0,0,0-.62-.26A1.47,1.47,0,0,0,5.15,8,2.36,2.36,0,0,1,6.79,8.83ZM6.54,7.14a2.68,2.68,0,0,1-.35-.48c-.38.1-.57.22-.57.34a1.59,1.59,0,0,1,.47.06A1.76,1.76,0,0,0,6.54,7.14Zm.83-.42v-.6L7,6.06v.21Zm1.77-.38-.61-.28V7.23A1,1,0,0,0,9.14,6.34Zm.75,1.6-.3-.36L9,8a2.07,2.07,0,0,0-.48.45A4.47,4.47,0,0,1,9.89,7.94Z" style="fill:#03060d"/></svg>