<svg xmlns="http://www.w3.org/2000/svg" width="24" height="24" viewBox="0 0 24 24"><path d="M20.48,3.51a12,12,0,0,1-17,17" transform="translate(0 0)" style="fill:#f7f5d9"/><path d="M3.51,20.49a12,12,0,0,1,17-17" transform="translate(0 0)" style="fill:#9cc395"/><path d="M21.12,17.55A4.07,4.07,0,0,0,20,16.66c-.14,0-.28.05-.4.24a.46.46,0,0,1-.55.21,3.24,3.24,0,0,1-.56-.24c-.22.21-.35.35-.36.42a.57.57,0,0,0,.13.39c.11.16.21.26.31.28l.26,0H19c.1,0,.11.24,0,.62a9.42,9.42,0,0,1-.67,1.66c0-.94-.15-1.44-.4-1.5a.63.63,0,0,0-.24,0,.83.83,0,0,1-.25,0c-.26-.06-.43-.34-.52-.85a.6.6,0,0,0-.74.47.48.48,0,0,0,.14.47c.14.14.2.24.19.28-.06.23-.49.51-1.29.83l-.88.37a3.27,3.27,0,0,0,.51-.53,1.5,1.5,0,0,0,.36-.61c0-.09-.05-.23-.21-.44a.66.66,0,0,1-.18-.56,1.35,1.35,0,0,1,.29-.51.52.52,0,0,0-.36-.29q-.51-.12-.6.21c0-.15,0,0-.08.35s-.31.38-.76.28a10.72,10.72,0,0,1-1.64-.65c.95,0,1.47-.16,1.54-.45,0,0,0-.08,0-.33s.28-.47.74-.59a.63.63,0,0,0-.48-.74s-.17.05-.35.2a.55.55,0,0,1-.45.18c-.21-.05-.43-.34-.65-.87-.1-.26-.26-.65-.47-1.17l.52.45a1.47,1.47,0,0,0,.58.33c.12,0,.27,0,.44-.23a.54.54,0,0,1,.53-.21l.49.28a1.24,1.24,0,0,0,.38-.5.59.59,0,0,0-.11-.4c-.09-.16-.19-.26-.29-.28a.66.66,0,0,0-.21,0h-.21c-.16,0-.19-.25-.1-.64,0-.11.27-.68.73-1.71a2.54,2.54,0,0,0,0,.77c.05.47.17.72.37.77a.53.53,0,0,0,.22,0,.94.94,0,0,1,.27,0,.58.58,0,0,1,.41.46l.11.4a.63.63,0,0,0,.5-.09.64.64,0,0,0,.3-.42.52.52,0,0,0-.14-.5c-.13-.13-.2-.23-.18-.28s.4-.42,1.08-.72a6.76,6.76,0,0,1,1-.4,2.35,2.35,0,0,0-.82,1,.58.58,0,0,0,.12.44,1.19,1.19,0,0,1,.23.43,1.21,1.21,0,0,1-.22.81,1.09,1.09,0,0,0,.47.37.35.35,0,0,0,.47-.3,1.3,1.3,0,0,0,0-.25c0-.15,0-.23,0-.24s.31-.12.76,0a12.1,12.1,0,0,1,1.67.65l-.92,0c-.37,0-.57.1-.6.23a1.5,1.5,0,0,0,0,.33,1.64,1.64,0,0,1,0,.34.44.44,0,0,1-.32.28l-.51.21a2.76,2.76,0,0,0,.12.39.5.5,0,0,0,.32.24c.1,0,.22-.05.35-.21a.44.44,0,0,1,.48-.17c.23.05.45.33.64.84C20.72,16.54,20.89,17,21.12,17.55ZM18.41,16.1a2.12,2.12,0,0,0-1.56-2.54,2.05,2.05,0,0,0-1.6.25,2.08,2.08,0,0,0-1,1.3,2,2,0,0,0,.27,1.59,2.14,2.14,0,0,0,1.32.95,2.11,2.11,0,0,0,1.62-.22A2,2,0,0,0,18.41,16.1Zm-.19,0a1.82,1.82,0,0,1-.85,1.18,1.87,1.87,0,0,1-1.45.2A1.87,1.87,0,0,1,15.36,14a1.88,1.88,0,0,1,1.44-.22,1.81,1.81,0,0,1,1.17.86A1.76,1.76,0,0,1,18.22,16.06Z" transform="translate(0 0)" style="fill:#03060d"/><path d="M12.39,8.24a.7.7,0,0,1-.21.49.66.66,0,0,1-.48.21.67.67,0,0,1-.64-.4l-.64,0a3.91,3.91,0,0,0-.8.17A2.23,2.23,0,0,0,8.88,9a1.61,1.61,0,0,0-.24.76,4.25,4.25,0,0,0-.08.72,1,1,0,0,0,.11.54.9.9,0,0,0,.48.29l.44.13.18,0h.16a1.24,1.24,0,0,1,.37.06c.18.05.26.13.23.22a2.17,2.17,0,0,0-.67.08l.38.19c0,.11-.15.16-.46.16a1.76,1.76,0,0,1-.33,0A1.39,1.39,0,0,0,9.17,12H9c0,.09,0,.23-.08.41a1,1,0,0,1-.55-.27A1.12,1.12,0,0,0,8,11.87s-.13.09-.23.26a.93.93,0,0,0-.15.35.71.71,0,0,1-.3-.35l-.12-.36c-.09,0-.26.2-.51.58H6.6a5.71,5.71,0,0,1-.21-.58,2.56,2.56,0,0,0-.79-.13,3,3,0,0,0-.54.08l-.38,0a3,3,0,0,1,.47-.31,1.63,1.63,0,0,1,.71-.27h.22a.78.78,0,0,0,.3-.1.49.49,0,0,0,.25-.18,1.74,1.74,0,0,0,0-.42,1.48,1.48,0,0,0-.41-1.16,2.2,2.2,0,0,0-1.17-.49,1.1,1.1,0,0,1-1.22.78.89.89,0,0,1-.65-.4,1.16,1.16,0,0,1-.33-.72,1,1,0,0,1,.42-.83A1,1,0,0,1,3,6.89a.91.91,0,0,1,.21-.6A.84.84,0,0,1,3.72,6,.58.58,0,0,1,4,5.39a.75.75,0,0,1-.15-.53A1,1,0,0,1,4.91,3.81a1.07,1.07,0,0,1,.8.34A1.65,1.65,0,0,1,7.41,2.8a1.63,1.63,0,0,1,1.2.55,1.63,1.63,0,0,1,.19.22c-.11,0-.05,0,.16-.06a3.4,3.4,0,0,1,.48-.07,1.34,1.34,0,0,1,.94.4,1.84,1.84,0,0,1,.49.9,1.71,1.71,0,0,1,.3.08.53.53,0,0,1,.3.52.83.83,0,0,1-.11.26A1.5,1.5,0,0,1,12.23,7a1.81,1.81,0,0,1-.19.68A.63.63,0,0,1,12.39,8.24Zm-5.6.59V8.66a.75.75,0,0,0-.31-.57.92.92,0,0,0-.62-.26A1.58,1.58,0,0,0,5.15,8,2.4,2.4,0,0,1,6.79,8.83ZM6.54,7.15a3.64,3.64,0,0,1-.35-.48c-.38.1-.57.21-.57.34a1.59,1.59,0,0,1,.47.06A2.37,2.37,0,0,0,6.54,7.15Zm.83-.42v-.6L7,6.07v.21Zm1.77-.39-.61-.27V7.24A1,1,0,0,0,9.14,6.34ZM9.89,8l-.3-.37L9,8a2.27,2.27,0,0,0-.48.44A4.46,4.46,0,0,1,9.89,8Z" transform="translate(0 0)" style="fill:#03060d"/></svg>