<svg xmlns="http://www.w3.org/2000/svg" width="24" height="24" viewBox="0 0 24 24"><path d="M24,12A12,12,0,1,1,12,0,12,12,0,0,1,24,12Z" transform="translate(0)" style="fill:#cfc9c2"/><path d="M12.55,1.5V8q0,1.17,1,1.17h.17v.45H10.23V9.21h.22q1,0,1-1.17V3.75c0-.79-.28-1.19-.83-1.19h-.35V2.13h.13A3,3,0,0,0,12.2,1.5Z" transform="translate(0)" style="fill:#03060d"/><path d="M14.77,19.32l-.6,2h-5v-.43c.25-.27.78-.82,1.6-1.64.5-.5,1-1,1.47-1.57a6.29,6.29,0,0,0,.56-.7,2.24,2.24,0,0,0,.43-1.29,1.72,1.72,0,0,0-.4-1.13,1.23,1.23,0,0,0-1-.49q-1.37,0-2.13,1.83l-.45-.16c.61-1.72,1.56-2.58,2.87-2.58a2.3,2.3,0,0,1,1.65.66,2.17,2.17,0,0,1,.67,1.62A3.24,3.24,0,0,1,13,17.88l-1,.81a15,15,0,0,0-1.55,1.47,1.56,1.56,0,0,0-.17.2h2.6a1.45,1.45,0,0,0,.91-.24,2.07,2.07,0,0,0,.52-.8Z" transform="translate(0)" style="fill:#03060d"/><path d="M5,11.87v-.7H19v.7Z" transform="translate(0)" style="fill:#03060d"/></svg>