<svg xmlns="http://www.w3.org/2000/svg" width="11.66" height="23.32" viewBox="0 0 11.66 23.32"><path d="M6.17.34V23.66A11.66,11.66,0,0,0,6.17.34Z" transform="translate(-6.17 -0.34)" style="fill:#f79f75"/><path d="M14.26,16.23a15.27,15.27,0,0,1-2.14.68A15.06,15.06,0,0,1,13.78,15a11.41,11.41,0,0,0,1.67-2.06,5.32,5.32,0,0,0,.68-2.66,9.64,9.64,0,0,0-2.44-5.87q.39,1,.57,1.44a5.87,5.87,0,0,1,.47,2.05,1.13,1.13,0,0,1-.32.9Q12.61,2.3,6.19,1.94V3c.71.23,1.06.52,1.06.87,0,.16-.35.32-1.06.5v.89h0a3.26,3.26,0,0,0,1.52-.45A3,3,0,0,1,9,4.39a1.66,1.66,0,0,1,1.46.92A3,3,0,0,1,10.93,7c0,.49-.12.74-.35.74s-.44-.25-.77-.74-.42-.66-.54-.83a1.45,1.45,0,0,0-.06.41,3.16,3.16,0,0,0,1.14,2.32,3.79,3.79,0,0,0,2.4,1.13,5.34,5.34,0,0,1-.42,1.66c-.28.75-.6,1.2-.95,1.34a1.37,1.37,0,0,1-.36-1,3.48,3.48,0,0,1,.2-.92,4,4,0,0,0,.19-.9,1.84,1.84,0,0,0-.67.64,2.26,2.26,0,0,0-.43.88,8.17,8.17,0,0,0-.12,2.14,2.44,2.44,0,0,1-.65,1.72A2,2,0,0,1,8,16.56a2,2,0,0,1-.92-.21.8.8,0,0,1-.53-.71c0-.48.42-1,1.28-1.46C9,13.47,9.73,12.08,9.92,10a12,12,0,0,1-1.54.9,7,7,0,0,1-2.19.86V21.87a12.92,12.92,0,0,0,5.57-1.33l-2.19-.05c-1.17,0-1.51,0-1,0a.63.63,0,0,1-.36-.19A.53.53,0,0,1,8,19.91c0-.31.42-.56,1.25-.74A7.39,7.39,0,0,1,10.79,19q3.89,0,5.19-3.11a3.35,3.35,0,0,0,.33-1.16A6.22,6.22,0,0,1,14.26,16.23Z" transform="translate(-6.17 -0.34)" style="fill:#03060d"/><path d="M7.65,7.79a1,1,0,0,0,.55-.85c0-.69-.32-1-1-1a1,1,0,0,0-.75.42c-.11.12-.2.22-.28.29V8.06a1.27,1.27,0,0,0,.38.07A2.07,2.07,0,0,0,7.65,7.79Z" transform="translate(-6.17 -0.34)" style="fill:#03060d"/></svg>