<svg xmlns="http://www.w3.org/2000/svg" width="12" height="24" viewBox="0 0 12 24"><path d="M6,0V24A12,12,0,0,0,6,0Z" transform="translate(-6 0)" style="fill:#f7f5d9"/><path d="M10.32,11.94A4.08,4.08,0,0,0,9,8.94a4.22,4.22,0,0,0-3-1.27v8.54a4.3,4.3,0,0,0,3-1.21A4.09,4.09,0,0,0,10.32,11.94Z" transform="translate(-6 0)" style="fill:#03060d"/><path d="M15.71,11.12c-.69-1-1.3-1.51-1.85-1.51a1,1,0,0,0-1,.63c-.2.43-.42.64-.66.64a1,1,0,0,1-.82-.36,5.72,5.72,0,0,1-.49-.79L12,9a1,1,0,0,0,.55-.78,3,3,0,0,0-.15-.76,3.16,3.16,0,0,1-.15-.73c0-.3.4-.57,1.21-.82l2-.54a30.67,30.67,0,0,0-4-.55c-1,0-1.59.14-1.67.43a1.9,1.9,0,0,0,0,.54,5.77,5.77,0,0,1,.07.58c0,.6-.29.91-.87.91A2.55,2.55,0,0,1,7.72,6.7a2.87,2.87,0,0,0,.06-1.91A3.07,3.07,0,0,0,7.05,4a1.38,1.38,0,0,1-.52-.91A5.4,5.4,0,0,1,7.84.49a12.51,12.51,0,0,0-1.79,1.2V7.16a4.54,4.54,0,0,1,3.3,1.42,4.59,4.59,0,0,1,1.42,3.36,4.51,4.51,0,0,1-1.34,3.41,4.74,4.74,0,0,1-3.38,1.34v5.43c1.49-1.07,2.24-1.87,2.24-2.4,0-.1-.19-.27-.56-.51a1.13,1.13,0,0,1-.56-1c0-.81.46-1.28,1.39-1.43.47,1.07,1,1.61,1.58,1.61a1.5,1.5,0,0,0,.56-.18,1.58,1.58,0,0,1,.5-.18c.58,0,1.14,1,1.66,3.08a19.79,19.79,0,0,0,.61-4c0-.91-.13-1.37-.37-1.37a3,3,0,0,0-.5.1A2.64,2.64,0,0,1,12,16a1.37,1.37,0,0,1-.83-.46,1.21,1.21,0,0,1-.5-.79,3.21,3.21,0,0,1,.58-1.12,7.08,7.08,0,0,0,1.36.25,1.06,1.06,0,0,0,1.09-.75c.18-.49.43-.74.76-.74a9.53,9.53,0,0,1,3,1.33C16.69,12.54,16.09,11.69,15.71,11.12Z" transform="translate(-6 0)" style="fill:#03060d"/></svg>