<svg xmlns="http://www.w3.org/2000/svg" width="111.03" height="21.86" viewBox="0 0 111.03 21.86"><path d="M100.78,1.07H11.61a10.93,10.93,0,0,0,0,21.86h89.17a10.93,10.93,0,0,0,0-21.86Z" transform="translate(-0.68 -1.07)" style="fill:#cfc9c2"/><path d="M19.07,19.77v-.58c1.5-.16,2.26-.71,2.26-1.65,0-.56-.22-.85-.64-.88l-.21,0c-.61,0-.92-.34-.92-.9a1,1,0,0,1,.29-.74,1.05,1.05,0,0,1,.76-.27,1.4,1.4,0,0,1,1.26.8,3,3,0,0,1,.39,1.54,2.42,2.42,0,0,1-1,2.06A4,4,0,0,1,19.07,19.77Z" transform="translate(-0.68 -1.07)" style="fill:#03060d"/><path d="M63.32,19.77v-.58c1.51-.16,2.26-.71,2.26-1.65,0-.56-.21-.85-.64-.88l-.21,0c-.61,0-.92-.34-.92-.9A1,1,0,0,1,64.1,15a1.05,1.05,0,0,1,.76-.27,1.38,1.38,0,0,1,1.26.8,3,3,0,0,1,.39,1.54,2.39,2.39,0,0,1-1,2.06A4,4,0,0,1,63.32,19.77Z" transform="translate(-0.68 -1.07)" style="fill:#03060d"/><path d="M94.78,12.08a12.59,12.59,0,0,1,1.33-5.77C97.2,4.13,98.71,3,100.61,3A4.9,4.9,0,0,1,105,5.82a10.43,10.43,0,0,1,1.33,5.34A12.11,12.11,0,0,1,105,16.87q-1.62,3.22-4.5,3.22a4.91,4.91,0,0,1-4.37-2.76A10.19,10.19,0,0,1,94.78,12.08Zm2.42-.95a13.63,13.63,0,0,0,1.25,6.43,2.54,2.54,0,0,0,2.22,1.61q3.27,0,3.27-6.72a20.83,20.83,0,0,0-.52-5q-.9-3.36-3-3.36-3.18,0-3.18,6.49Z" transform="translate(-0.68 -1.07)" style="fill:#03060d"/><path d="M81.44,12.08a12.72,12.72,0,0,1,1.33-5.77Q84.42,3,87.28,3A4.9,4.9,0,0,1,91.7,5.82,10.43,10.43,0,0,1,93,11.16a12.11,12.11,0,0,1-1.33,5.71q-1.62,3.22-4.51,3.22a4.89,4.89,0,0,1-4.36-2.76A10.2,10.2,0,0,1,81.44,12.08Zm2.43-.95a13.65,13.65,0,0,0,1.24,6.43,2.56,2.56,0,0,0,2.23,1.61q3.25,0,3.26-6.72a20.33,20.33,0,0,0-.52-5q-.89-3.36-3-3.36-3.18,0-3.18,6.49Z" transform="translate(-0.68 -1.07)" style="fill:#03060d"/><path d="M68,12.08a12.72,12.72,0,0,1,1.33-5.77Q71,3,73.88,3A4.9,4.9,0,0,1,78.3,5.82a10.43,10.43,0,0,1,1.33,5.34,12.11,12.11,0,0,1-1.33,5.71q-1.62,3.22-4.51,3.22a4.89,4.89,0,0,1-4.36-2.76A10.2,10.2,0,0,1,68,12.08Zm2.43-.95a13.65,13.65,0,0,0,1.24,6.43,2.56,2.56,0,0,0,2.23,1.61q3.25,0,3.26-6.72a20.33,20.33,0,0,0-.52-5c-.59-2.24-1.61-3.36-3-3.36q-3.18,0-3.18,6.49Z" transform="translate(-0.68 -1.07)" style="fill:#03060d"/><path d="M50.26,12.08a12.72,12.72,0,0,1,1.33-5.77Q53.24,3,56.1,3a4.9,4.9,0,0,1,4.42,2.78,10.53,10.53,0,0,1,1.33,5.34,12.23,12.23,0,0,1-1.33,5.71Q58.9,20.1,56,20.09a4.89,4.89,0,0,1-4.36-2.76A10.2,10.2,0,0,1,50.26,12.08Zm2.43-.95a13.65,13.65,0,0,0,1.24,6.43,2.56,2.56,0,0,0,2.23,1.61q3.26,0,3.26-6.72a20.33,20.33,0,0,0-.52-5q-.9-3.36-3-3.36-3.18,0-3.18,6.49Z" transform="translate(-0.68 -1.07)" style="fill:#03060d"/><path d="M36.93,12.08a12.59,12.59,0,0,1,1.33-5.77Q39.91,3,42.77,3a4.91,4.91,0,0,1,4.42,2.78,10.53,10.53,0,0,1,1.33,5.34,12.23,12.23,0,0,1-1.33,5.71q-1.62,3.22-4.51,3.22a4.89,4.89,0,0,1-4.36-2.76A10.1,10.1,0,0,1,36.93,12.08Zm2.43-.95a13.65,13.65,0,0,0,1.24,6.43,2.56,2.56,0,0,0,2.22,1.61q3.27,0,3.27-6.72a20.33,20.33,0,0,0-.52-5q-.9-3.36-3-3.36-3.18,0-3.18,6.49Z" transform="translate(-0.68 -1.07)" style="fill:#03060d"/><path d="M23.53,12.08a12.59,12.59,0,0,1,1.33-5.77Q26.51,3,29.37,3a4.91,4.91,0,0,1,4.42,2.78,10.53,10.53,0,0,1,1.33,5.34,12.23,12.23,0,0,1-1.33,5.71c-1.08,2.15-2.59,3.22-4.51,3.22a4.88,4.88,0,0,1-4.36-2.76A10.1,10.1,0,0,1,23.53,12.08ZM26,11.13a13.65,13.65,0,0,0,1.24,6.43,2.56,2.56,0,0,0,2.22,1.61q3.27,0,3.27-6.72a20.33,20.33,0,0,0-.52-5q-.9-3.36-3-3.36C27,4.1,26,6.26,26,10.59Z" transform="translate(-0.68 -1.07)" style="fill:#03060d"/><path d="M14.18,3V16.7c0,1.64.71,2.45,2.12,2.45h.37v.94H9.21v-.94h.47c1.37,0,2.05-.81,2.05-2.45v-9c0-1.65-.59-2.48-1.77-2.48H9.21V4.35h.27a6.52,6.52,0,0,0,4-1.31Z" transform="translate(-0.68 -1.07)" style="fill:#03060d"/></svg>