<svg xmlns="http://www.w3.org/2000/svg" width="12.76" height="22.54" viewBox="0 0 12.76 22.54"><path d="M18.34,12A5.49,5.49,0,0,0,17.2,8.55c-.37-.41-.68-.87-1.07-1.26-.86-.85-2.15-.91-3.19-1.45a4.75,4.75,0,0,1-.14-1.63.77.77,0,0,0,0-.54,5.9,5.9,0,0,1-.09-2c0-.34,0-.76-.34-1a9.87,9.87,0,0,1-.55,2.05,5.92,5.92,0,0,1-.32,1.57A1.43,1.43,0,0,1,11,5.65,9.19,9.19,0,0,0,9,6.6a10.65,10.65,0,0,1-1.35,1A4.29,4.29,0,0,0,6.69,9a9.23,9.23,0,0,0-1.07,2.69,6.08,6.08,0,0,0,1.11,3.84c.61.51,1,1.18,1.65,1.69.58.35,1.21.63,1.81,1,.39.09.8.13,1.19.24a25.14,25.14,0,0,0,1.17,4.86c.21-.64.19-1.32.37-2,.26-.95-.27-1.94,0-2.88.44-.4,1.19-.14,1.68-.48a9.13,9.13,0,0,0,2.62-2c.25-.51.79-.89.79-1.51C18,13.59,18.52,12.82,18.34,12Zm-7,5.05a5.85,5.85,0,0,1-1.89-.89C8.85,15.73,8.62,15,8,14.54c-.57-.68-.44-1.6-.68-2.41.1-.56.21-1.11.26-1.68A4.6,4.6,0,0,0,8.42,9.1,11.89,11.89,0,0,1,9.94,7.61c.36-.42.94-.24,1.41-.26a4.32,4.32,0,0,0,0,1.39,2.22,2.22,0,0,1,.14.84,16.44,16.44,0,0,1,0,1.86c-.34,1.28,0,2.58.06,3.87A12.43,12.43,0,0,1,11.35,17Zm5.17-2.43a10.63,10.63,0,0,0-1.23,1.1,7.75,7.75,0,0,1-2.18,1.21,3.83,3.83,0,0,0,0-1.75c-.45-1.29.11-2.63.2-3.93a6.48,6.48,0,0,0-.36-2.32,4.41,4.41,0,0,1,.34-1.55,5.28,5.28,0,0,1,1.5.88c.54.4,1.37.67,1.49,1.42.06.5.61.8.59,1.31A10.8,10.8,0,0,1,16.52,14.6Z" transform="translate(-5.62 -0.73)" style="fill:#0b0d12"/></svg>