<svg xmlns="http://www.w3.org/2000/svg" width="23.82" height="23.82" viewBox="0 0 23.82 23.82"><path d="M23.91,12A11.91,11.91,0,1,1,12,.09,11.91,11.91,0,0,1,23.91,12Z" transform="translate(-0.09 -0.09)" style="fill:#03060d"/><path d="M18.89,5.87l-3,1.77A11.84,11.84,0,0,1,18.08,14a5.21,5.21,0,0,1-1.4,3.81A5,5,0,0,1,12.9,19.2q-4,0-9-4.14l2.4-2.38q3.45,3.14,6.49,3.13a2.18,2.18,0,0,0,1.52-.41,2.07,2.07,0,0,0,.42-1.5A6,6,0,0,0,13.39,10l-2.14,3V4.8Z" transform="translate(-0.09 -0.09)" style="fill:#fff"/></svg>