<svg xmlns="http://www.w3.org/2000/svg" width="24" height="24" viewBox="0 0 24 24"><circle cx="12" cy="12" r="12" style="fill:#f79f75"/><path d="M22.07,16q-1.35,3.21-5.34,3.21a7.75,7.75,0,0,0-1.59.18c-.86.18-1.29.44-1.29.76a.5.5,0,0,0,.22.35.55.55,0,0,0,.36.2c-.51,0-.16,0,1,0l2.26,0q-2.65,1.56-8.89,1.44a4.52,4.52,0,0,1-3.51-1.8,5.63,5.63,0,0,1-1.44-3.76,5.19,5.19,0,0,1,1.49-3.74,4.87,4.87,0,0,1,3.68-1.54,5.52,5.52,0,0,1,1.3.21,5.36,5.36,0,0,0,1.08.21,6.16,6.16,0,0,0,2.81-.93,13.2,13.2,0,0,0,1.59-.93c-.2,2.14-.92,3.57-2.14,4.31-.88.51-1.31,1-1.31,1.49a.83.83,0,0,0,.55.74,2.09,2.09,0,0,0,.94.21,2.09,2.09,0,0,0,1.56-1,2.45,2.45,0,0,0,.67-1.77,8.28,8.28,0,0,1,.13-2.2,2.28,2.28,0,0,1,.44-.9,1.8,1.8,0,0,1,.69-.66,3.73,3.73,0,0,1-.2.92,3.72,3.72,0,0,0-.2,1,1.39,1.39,0,0,0,.37,1,2.21,2.21,0,0,0,1-1.38A5.37,5.37,0,0,0,18.74,10a3.9,3.9,0,0,1-2.46-1.16,3.24,3.24,0,0,1-1.17-2.38A1.54,1.54,0,0,1,15.17,6l.55.85c.34.51.61.77.79.77s.37-.26.37-.77a3.22,3.22,0,0,0-.52-1.77,1.73,1.73,0,0,0-1.5-1,3.24,3.24,0,0,0-1.28.46A3.3,3.3,0,0,1,12,5.08a13.37,13.37,0,0,1-1.89-.55c2-.32,3-.62,3-.88,0-.7-1.36-1.17-4.06-1.41L7.56,2.12A5.07,5.07,0,0,1,9.3,1.78c.92-.1,1.56-.15,1.93-.15q7.26,0,9.22,7.06a1.14,1.14,0,0,0,.34-.93,6.07,6.07,0,0,0-.49-2.11c-.12-.33-.32-.82-.58-1.49a10,10,0,0,1,2.5,6.05,5.34,5.34,0,0,1-.7,2.73,10.44,10.44,0,0,1-1.71,2.12,15,15,0,0,0-1.71,2,16.18,16.18,0,0,0,2.2-.71,6.32,6.32,0,0,0,2.11-1.55A3.37,3.37,0,0,1,22.07,16ZM8.75,4a.68.68,0,0,1-.61.7l-.79.13A4.6,4.6,0,0,0,6.09,6.49Q6,6,5.82,5.2a2.56,2.56,0,0,0-.92.49c-.18.15-.48.36-.88.64A4.42,4.42,0,0,1,5.24,4.1,3,3,0,0,1,7.38,2.85C8.29,2.85,8.75,3.23,8.75,4Zm5.32,2.81a1,1,0,0,1-.57.87A2.06,2.06,0,0,1,12.39,8a1.63,1.63,0,0,1-1.32-.82A3.5,3.5,0,0,0,9.64,5.88.46.46,0,0,1,10,5.72a2.25,2.25,0,0,1,.94.43,2.23,2.23,0,0,0,.84.43c.1,0,.27-.14.5-.43a1,1,0,0,1,.78-.43C13.73,5.72,14.07,6.08,14.07,6.79Z" transform="translate(0 0)" style="fill:#03060d"/></svg>