<svg xmlns="http://www.w3.org/2000/svg" width="24" height="24" viewBox="0 0 24 24"><path d="M20.48,3.51a12,12,0,0,1-17,17" style="fill:#9cc395"/><path d="M3.51,20.49a12,12,0,0,1,17-17" style="fill:#f79f75"/><path d="M12.46,9.14A2.4,2.4,0,0,1,10,10.61a3.23,3.23,0,0,0-.73.09c-.4.08-.59.2-.59.35a.22.22,0,0,0,.1.16A.26.26,0,0,0,9,11.3c-.23,0-.07,0,.48,0l1,0A8.17,8.17,0,0,1,6.38,12a2.08,2.08,0,0,1-1.61-.82,2.62,2.62,0,0,1-.66-1.73,2.39,2.39,0,0,1,.68-1.72A2.26,2.26,0,0,1,6.48,7a2.31,2.31,0,0,1,.6.1,2.64,2.64,0,0,0,.5.09,2.9,2.9,0,0,0,1.29-.42,7,7,0,0,0,.73-.43,2.41,2.41,0,0,1-1,2C8.21,8.57,8,8.8,8,9a.37.37,0,0,0,.26.33.88.88,0,0,0,.43.1A1,1,0,0,0,9.42,9a1.2,1.2,0,0,0,.31-.81,4,4,0,0,1,0-1A1.09,1.09,0,0,1,10,6.77a.85.85,0,0,1,.31-.3,1.66,1.66,0,0,1-.09.42,1.68,1.68,0,0,0-.09.44.64.64,0,0,0,.17.47q.26-.09.45-.63a2.61,2.61,0,0,0,.19-.78A1.78,1.78,0,0,1,9.8,5.85a1.47,1.47,0,0,1-.54-1.09.69.69,0,0,1,0-.2c.06.08.14.22.25.39s.28.35.37.35.17-.11.17-.35a1.43,1.43,0,0,0-.24-.81.8.8,0,0,0-.69-.44,1.44,1.44,0,0,0-.59.21,1.54,1.54,0,0,1-.72.21A6.29,6.29,0,0,1,7,3.87c.91-.15,1.37-.28,1.37-.41,0-.31-.63-.53-1.87-.64l-.68-.06a2.53,2.53,0,0,1,.8-.15,8.58,8.58,0,0,1,.89-.07,4,4,0,0,1,4.24,3.24.53.53,0,0,0,.16-.42,2.84,2.84,0,0,0-.23-1l-.27-.69a4.61,4.61,0,0,1,1.16,2.78,2.47,2.47,0,0,1-.33,1.26,5.09,5.09,0,0,1-.78,1,6.55,6.55,0,0,0-.79.92,9,9,0,0,0,1-.32,2.89,2.89,0,0,0,1-.72A1.48,1.48,0,0,1,12.46,9.14ZM6.34,3.62a.31.31,0,0,1-.28.32L5.7,4c-.14.06-.33.32-.58.77,0-.14-.07-.34-.13-.59a1.27,1.27,0,0,0-.42.23l-.41.29a2,2,0,0,1,.57-1,1.35,1.35,0,0,1,1-.58C6.13,3.1,6.34,3.27,6.34,3.62ZM8.79,4.91a.48.48,0,0,1-.26.4A1,1,0,0,1,8,5.47a.74.74,0,0,1-.6-.38,1.71,1.71,0,0,0-.66-.6.21.21,0,0,1,.17-.07,1,1,0,0,1,.43.2,1.09,1.09,0,0,0,.38.19s.13-.06.23-.19a.45.45,0,0,1,.36-.2C8.63,4.42,8.79,4.58,8.79,4.91Z" style="fill:#03060d"/><path d="M21.48,16.23a.7.7,0,0,1-.21.49.67.67,0,0,1-.48.22.68.68,0,0,1-.64-.41l-.64,0a3.5,3.5,0,0,0-.8.18A2.31,2.31,0,0,0,18,17a1.66,1.66,0,0,0-.24.77,4.05,4.05,0,0,0-.08.72,1,1,0,0,0,.11.54,1,1,0,0,0,.48.28l.44.13H19a1.22,1.22,0,0,1,.37.05c.18.06.26.13.23.22a2.17,2.17,0,0,0-.67.08l.38.19c0,.11-.15.16-.46.16a1.19,1.19,0,0,1-.33-.05,1.15,1.15,0,0,0-.28-.05h-.18a2.5,2.5,0,0,1-.08.4,1,1,0,0,1-.54-.27,1.21,1.21,0,0,0-.4-.26s-.13.09-.23.26a.89.89,0,0,0-.15.36.79.79,0,0,1-.3-.36l-.12-.35q-.14,0-.51.57h-.06s-.09-.22-.21-.57a2.58,2.58,0,0,0-.79-.14,3,3,0,0,0-.54.08l-.38,0a2.76,2.76,0,0,1,.47-.32A1.63,1.63,0,0,1,15,19.1h.11l.11,0a1.14,1.14,0,0,0,.31-.1c.14-.07.22-.13.24-.19a1.63,1.63,0,0,0,0-.42,1.53,1.53,0,0,0-.4-1.16,2.37,2.37,0,0,0-1.18-.49,1.1,1.1,0,0,1-1.22.78.86.86,0,0,1-.65-.4,1.16,1.16,0,0,1-.33-.72,1,1,0,0,1,.42-.83,1.05,1.05,0,0,1-.34-.72.91.91,0,0,1,.21-.6.84.84,0,0,1,.55-.3.58.58,0,0,1,.29-.6.73.73,0,0,1-.15-.53,1,1,0,0,1,1.05-1,1.07,1.07,0,0,1,.8.34,1.65,1.65,0,0,1,1.7-1.34,1.6,1.6,0,0,1,1.2.54,1.63,1.63,0,0,1,.19.22c-.11,0-.05,0,.16-.06a3,3,0,0,1,.48-.06,1.33,1.33,0,0,1,.94.39,1.89,1.89,0,0,1,.49.9l.3.08a.53.53,0,0,1,.3.52.83.83,0,0,1-.11.26A1.5,1.5,0,0,1,21.32,15a1.81,1.81,0,0,1-.19.68A.65.65,0,0,1,21.48,16.23Zm-5.6.6v-.18a.75.75,0,0,0-.31-.57,1,1,0,0,0-.62-.26,1.47,1.47,0,0,0-.71.18A2.36,2.36,0,0,1,15.88,16.83Zm-.25-1.69a3.27,3.27,0,0,1-.35-.48c-.38.1-.57.22-.57.34a1.59,1.59,0,0,1,.47.06A1.76,1.76,0,0,0,15.63,15.14Zm.83-.42v-.6l-.39-.06v.21Zm1.77-.38-.61-.28v1.17A1,1,0,0,0,18.23,14.34Zm.75,1.6-.3-.36-.55.38a2.07,2.07,0,0,0-.48.45A4.47,4.47,0,0,1,19,15.94Z" style="fill:#03060d"/></svg>