<svg xmlns="http://www.w3.org/2000/svg" width="24" height="24" viewBox="0 0 24 24"><circle cx="12" cy="12" r="12" style="fill:#f79f75"/><path d="M18.61,12A5.64,5.64,0,0,0,17.42,8.4c-.38-.43-.7-.91-1.11-1.31-.9-.9-2.25-1-3.33-1.52a5.14,5.14,0,0,1-.15-1.7.77.77,0,0,0,0-.56,6.18,6.18,0,0,1-.09-2.06c0-.35,0-.79-.35-1a11.26,11.26,0,0,1-.57,2.14A7.59,7.59,0,0,1,11.47,4,1.5,1.5,0,0,1,11,5.38a10,10,0,0,0-2.18,1,10.67,10.67,0,0,1-1.41,1,4.16,4.16,0,0,0-1,1.5,9.84,9.84,0,0,0-1.12,2.81,6.37,6.37,0,0,0,1.17,4c.63.52,1.08,1.23,1.71,1.75.61.37,1.26.67,1.89,1,.41.1.83.15,1.24.26a26,26,0,0,0,1.23,5.07c.22-.66.19-1.38.38-2.05.27-1-.28-2,0-3,.46-.41,1.24-.14,1.75-.5a9.68,9.68,0,0,0,2.74-2.12c.26-.53.82-.93.82-1.57C18.3,13.66,18.81,12.85,18.61,12Zm-7.28,5.27a6.2,6.2,0,0,1-2-.93c-.64-.43-.88-1.23-1.51-1.67-.59-.71-.47-1.67-.71-2.51.1-.59.21-1.17.27-1.76A4.65,4.65,0,0,0,8.26,9,12.94,12.94,0,0,1,9.85,7.42c.38-.44,1-.26,1.48-.27a4.16,4.16,0,0,0,0,1.45,2.42,2.42,0,0,1,.14.88,15.67,15.67,0,0,1,0,1.94c-.34,1.34,0,2.69.07,4A13.64,13.64,0,0,1,11.33,17.25Zm5.39-2.54a10.73,10.73,0,0,0-1.28,1.15,8.34,8.34,0,0,1-2.28,1.26,4.14,4.14,0,0,0,0-1.82c-.47-1.35.11-2.75.21-4.11A7,7,0,0,0,13,8.78a4.34,4.34,0,0,1,.36-1.62,5.69,5.69,0,0,1,1.56.91c.56.43,1.43.7,1.56,1.49.06.52.63.83.61,1.36A11.2,11.2,0,0,1,16.72,14.71Z" style="fill:#0b0d12"/></svg>