<svg xmlns="http://www.w3.org/2000/svg" width="24" height="24" viewBox="0 0 24 24"><path d="M20.48,3.51a12,12,0,0,1-17,17" style="fill:#f7f5d9"/><path d="M3.51,20.49a12,12,0,0,1,17-17" style="fill:#f79f75"/><path d="M21.12,17.55A4.07,4.07,0,0,0,20,16.66c-.14,0-.28.05-.4.24a.46.46,0,0,1-.55.21,3.24,3.24,0,0,1-.56-.24c-.22.21-.35.35-.36.42a.57.57,0,0,0,.13.39c.11.16.21.26.31.28l.26,0H19c.1,0,.11.24,0,.63a9.71,9.71,0,0,1-.67,1.65c0-.94-.15-1.44-.4-1.5a.63.63,0,0,0-.24,0,.83.83,0,0,1-.25,0c-.26-.06-.43-.34-.52-.85a.6.6,0,0,0-.74.47.48.48,0,0,0,.14.47c.14.14.2.24.19.28-.06.23-.49.51-1.29.83l-.88.37a3.27,3.27,0,0,0,.51-.53,1.5,1.5,0,0,0,.36-.61c0-.09-.05-.23-.21-.44a.66.66,0,0,1-.18-.56,1.35,1.35,0,0,1,.29-.51.52.52,0,0,0-.36-.29q-.51-.12-.6.21c0-.15,0,0-.08.35s-.31.38-.76.28a11.51,11.51,0,0,1-1.64-.64c.95,0,1.47-.17,1.54-.46,0,0,0-.08,0-.33s.28-.47.74-.59a.63.63,0,0,0-.48-.74s-.17.05-.35.2a.55.55,0,0,1-.45.18c-.21-.05-.43-.34-.65-.87-.1-.26-.26-.65-.47-1.17l.52.45a1.67,1.67,0,0,0,.58.34c.12,0,.27-.05.44-.24a.54.54,0,0,1,.53-.21l.49.28a1.24,1.24,0,0,0,.38-.5.59.59,0,0,0-.11-.4c-.09-.16-.19-.26-.29-.28a.66.66,0,0,0-.21,0h-.21c-.16,0-.19-.25-.1-.64,0-.11.27-.68.73-1.71a2.54,2.54,0,0,0,0,.77c.05.47.17.72.37.77a.53.53,0,0,0,.22,0,.94.94,0,0,1,.27,0,.58.58,0,0,1,.41.46l.11.4a.63.63,0,0,0,.5-.09.64.64,0,0,0,.3-.42.52.52,0,0,0-.14-.5c-.13-.13-.2-.23-.18-.28s.4-.42,1.08-.72a6.3,6.3,0,0,1,1-.39,2.28,2.28,0,0,0-.82,1,.58.58,0,0,0,.12.44,1.19,1.19,0,0,1,.23.43,1.21,1.21,0,0,1-.22.81,1.09,1.09,0,0,0,.47.37.35.35,0,0,0,.47-.3,1.3,1.3,0,0,0,0-.25c0-.15,0-.23,0-.24s.31-.12.76,0a13.66,13.66,0,0,1,1.67.65l-.92,0c-.37,0-.57.09-.6.22a1.5,1.5,0,0,0,0,.33,1.64,1.64,0,0,1,0,.34.44.44,0,0,1-.32.28l-.51.21a2.76,2.76,0,0,0,.12.39.5.5,0,0,0,.32.24c.1,0,.22-.05.35-.21a.44.44,0,0,1,.48-.17c.23.05.45.33.64.84C20.72,16.54,20.89,17,21.12,17.55ZM18.41,16.1a2.12,2.12,0,0,0-1.56-2.54,2.05,2.05,0,0,0-1.6.25,2.08,2.08,0,0,0-1,1.3,2,2,0,0,0,.27,1.59,2.14,2.14,0,0,0,1.32.95,2.11,2.11,0,0,0,1.62-.22A2,2,0,0,0,18.41,16.1Zm-.19,0a1.82,1.82,0,0,1-.85,1.18,1.87,1.87,0,0,1-1.45.2A1.87,1.87,0,0,1,15.36,14a1.88,1.88,0,0,1,1.44-.22,1.81,1.81,0,0,1,1.17.86A1.76,1.76,0,0,1,18.22,16.06Z" style="fill:#03060d"/><path d="M12.46,9.14A2.4,2.4,0,0,1,10,10.61a3.23,3.23,0,0,0-.73.09c-.4.08-.59.2-.59.35a.22.22,0,0,0,.1.16A.26.26,0,0,0,9,11.3c-.23,0-.07,0,.48,0l1,0A8.17,8.17,0,0,1,6.38,12a2.08,2.08,0,0,1-1.61-.82,2.62,2.62,0,0,1-.66-1.73,2.39,2.39,0,0,1,.68-1.72A2.26,2.26,0,0,1,6.48,7a2.31,2.31,0,0,1,.6.1,2.64,2.64,0,0,0,.5.09,2.9,2.9,0,0,0,1.29-.42,7,7,0,0,0,.73-.43,2.41,2.41,0,0,1-1,2C8.21,8.57,8,8.8,8,9a.37.37,0,0,0,.26.33.88.88,0,0,0,.43.1A1,1,0,0,0,9.42,9a1.2,1.2,0,0,0,.31-.81,4,4,0,0,1,0-1A1.09,1.09,0,0,1,10,6.77a.85.85,0,0,1,.31-.3,1.66,1.66,0,0,1-.09.42,1.68,1.68,0,0,0-.09.44.64.64,0,0,0,.17.47q.26-.09.45-.63a2.61,2.61,0,0,0,.19-.78A1.78,1.78,0,0,1,9.8,5.85a1.47,1.47,0,0,1-.54-1.09.69.69,0,0,1,0-.2c.06.08.14.22.25.39s.28.35.37.35.17-.11.17-.35a1.43,1.43,0,0,0-.24-.81.8.8,0,0,0-.69-.44,1.44,1.44,0,0,0-.59.21,1.54,1.54,0,0,1-.72.21A6.29,6.29,0,0,1,7,3.87c.91-.15,1.37-.28,1.37-.41,0-.31-.63-.53-1.87-.64l-.68-.06a2.53,2.53,0,0,1,.8-.15,8.58,8.58,0,0,1,.89-.07,4,4,0,0,1,4.24,3.24.53.53,0,0,0,.16-.42,2.84,2.84,0,0,0-.23-1l-.27-.69a4.61,4.61,0,0,1,1.16,2.78,2.47,2.47,0,0,1-.33,1.26,5.09,5.09,0,0,1-.78,1,6.55,6.55,0,0,0-.79.92,9,9,0,0,0,1-.32,2.89,2.89,0,0,0,1-.72A1.48,1.48,0,0,1,12.46,9.14ZM6.34,3.62a.31.31,0,0,1-.28.32L5.7,4c-.14.06-.33.32-.58.77,0-.14-.07-.34-.13-.59a1.27,1.27,0,0,0-.42.23l-.41.29a2,2,0,0,1,.57-1,1.35,1.35,0,0,1,1-.58C6.13,3.1,6.34,3.27,6.34,3.62ZM8.79,4.91a.48.48,0,0,1-.26.4A1,1,0,0,1,8,5.47a.74.74,0,0,1-.6-.38,1.71,1.71,0,0,0-.66-.6.21.21,0,0,1,.17-.07,1,1,0,0,1,.43.2,1.09,1.09,0,0,0,.38.19s.13-.06.23-.19a.45.45,0,0,1,.36-.2C8.63,4.42,8.79,4.58,8.79,4.91Z" style="fill:#03060d"/></svg>