<svg xmlns="http://www.w3.org/2000/svg" width="24" height="24" viewBox="0 0 24 24"><path d="M12,24A12,12,0,1,0,0,12,12,12,0,0,0,12,24Z" style="fill:#cdc8c1"/><polygon points="9.08 21.4 9.65 20.42 12 23.73 14.35 20.42 14.92 21.4 15.96 21.41 18 22.39 18.17 20.13 18.68 19.23 18.11 18.25 22.16 17.87 20.47 14.17 21.6 14.17 22.13 13.28 24 12 22.13 10.72 21.6 9.83 20.47 9.83 22.16 6.13 18.11 5.75 18.68 4.77 18.17 3.87 18 1.61 15.96 2.59 14.92 2.6 14.35 3.58 12 0.27 9.65 3.58 9.08 2.6 8.04 2.59 6 1.61 5.83 3.87 5.32 4.77 5.89 5.75 1.84 6.13 3.53 9.83 2.4 9.83 1.87 10.72 0 12 1.87 13.28 2.4 14.17 3.53 14.17 1.84 17.87 5.89 18.25 5.32 19.23 5.83 20.13 6 22.39 8.04 21.41 9.08 21.4" style="fill:#03060d"/><polygon points="8.38 19.25 12 13.41 15.63 19.25 15.63 20.22 16.47 20.71 17.31 20.22 17.31 19.25 16.47 18.77 13.22 12.71 20.09 12.49 20.93 12.97 21.77 12.49 21.77 11.51 20.93 11.03 20.09 11.51 13.22 11.29 16.47 5.24 17.31 4.75 17.31 3.78 16.47 3.29 15.63 3.78 15.63 4.75 12 10.59 8.38 4.75 8.38 3.78 7.53 3.29 6.69 3.78 6.69 4.75 7.53 5.24 10.78 11.29 3.91 11.51 3.07 11.03 2.23 11.51 2.23 12.49 3.07 12.97 3.91 12.49 10.78 12.71 7.53 18.77 6.69 19.25 6.69 20.22 7.53 20.71 8.38 20.22 8.38 19.25" style="fill:#fff"/><polygon points="13.69 5.37 12 8.32 10.31 5.37 12 2.42 13.69 5.37" style="fill:#fff"/><polygon points="7.11 7.22 8.82 10.16 5.42 10.15 3.71 7.21 7.11 7.22" style="fill:#fff"/><polygon points="5.42 13.85 8.82 13.84 7.11 16.78 3.71 16.79 5.42 13.85" style="fill:#fff"/><polygon points="10.31 18.63 12 15.68 13.69 18.63 12 21.57 10.31 18.63" style="fill:#fff"/><polygon points="16.89 16.78 15.18 13.84 18.58 13.85 20.29 16.79 16.89 16.78" style="fill:#fff"/><polygon points="18.58 10.15 15.18 10.16 16.89 7.22 20.29 7.21 18.58 10.15" style="fill:#fff"/></svg>