<svg xmlns="http://www.w3.org/2000/svg" width="23.67" height="23.67" viewBox="0 0 23.67 23.67"><path d="M24,12.05A11.84,11.84,0,1,1,12.16.21,11.84,11.84,0,0,1,24,12.05Z" transform="translate(-0.33 -0.21)" style="fill:#cfc9c2"/><path d="M20.53,14.16H12l3.13-2.22a6.31,6.31,0,0,0-4-1.38A2.12,2.12,0,0,0,9.55,11a2.23,2.23,0,0,0-.43,1.58q0,3.15,3.25,6.72L9.91,21.78q-4.3-5.22-4.3-9.33A5.25,5.25,0,0,1,7.1,8.53,5.39,5.39,0,0,1,11,7.08a12.3,12.3,0,0,1,6.55,2.28l1.83-3.12Z" transform="translate(-0.33 -0.21)" style="fill:#03060d"/></svg>