<svg xmlns="http://www.w3.org/2000/svg" width="23.67" height="23.67" viewBox="0 0 23.67 23.67"><circle cx="11.84" cy="11.84" r="11.84" style="fill:#bbd8e7"/><path d="M16.3,20a5.64,5.64,0,0,1-4.18,1.73,5.54,5.54,0,0,1-4.43-1.91,6.94,6.94,0,0,1-1.55-4.64c0-2,.88-4.33,2.64-6.92a25.7,25.7,0,0,1,5.07-5.58,14.45,14.45,0,0,0-.43,2.76A6.67,6.67,0,0,0,14.6,9.14c1,1.41,1.71,2.47,2.22,3.15A6.34,6.34,0,0,1,18,15.78,5.8,5.8,0,0,1,16.3,20Zm0-6.48a2.68,2.68,0,0,0-1.06-1.35,1.21,1.21,0,0,1,.09.52,6.85,6.85,0,0,1-.36,1.82l-.4,1.21a.94.94,0,0,0,1.07,1.06c.74,0,1.12-.49,1.12-1.48A4.38,4.38,0,0,0,16.27,13.55Z" transform="translate(-0.33 -0.21)" style="fill:#03060d"/></svg>