<svg xmlns="http://www.w3.org/2000/svg" width="24" height="24" viewBox="0 0 24 24"><path d="M24,12A12,12,0,1,1,12,0,12,12,0,0,1,24,12Z" style="fill:#cfc9c2"/><path d="M12,10.86q2.6-3.61,5.77-3.61a4.51,4.51,0,0,1,3.38,1.29A4.64,4.64,0,0,1,22.4,12a4.79,4.79,0,0,1-1.27,3.46,4.36,4.36,0,0,1-3.35,1.34q-3.12,0-5.8-3.61c-1.82,2.41-3.74,3.61-5.73,3.61a4.44,4.44,0,0,1-3.38-1.32A4.75,4.75,0,0,1,1.6,12,4.68,4.68,0,0,1,2.87,8.56,4.44,4.44,0,0,1,6.25,7.25Q9.31,7.25,12,10.86ZM11.08,12Q8.65,8.67,6.18,8.68a3.07,3.07,0,0,0-2.33.92A3.28,3.28,0,0,0,3,12a3.39,3.39,0,0,0,.87,2.42,3,3,0,0,0,2.33.95Q8.54,15.35,11.08,12Zm1.78,0q2.52,3.33,5,3.33a3,3,0,0,0,2.29-.92A3.35,3.35,0,0,0,21,12.05a3.45,3.45,0,0,0-.85-2.45,3.1,3.1,0,0,0-2.36-.92A4.34,4.34,0,0,0,15,9.74,15.25,15.25,0,0,0,12.86,12Z" style="fill:#03060d"/></svg>