<svg xmlns="http://www.w3.org/2000/svg" width="23.67" height="23.67" viewBox="0 0 23.67 23.67"><circle cx="11.84" cy="11.84" r="11.84" style="fill:#f7f5d9"/><path d="M23.74,13.69a9.08,9.08,0,0,0-3-1.32c-.32,0-.56.25-.74.73a1,1,0,0,1-1.08.73,8,8,0,0,1-1.34-.23A3.11,3.11,0,0,0,17,14.7a1.2,1.2,0,0,0,.49.78,1.35,1.35,0,0,0,.82.45,2.57,2.57,0,0,0,.58-.09,2.72,2.72,0,0,1,.49-.09c.24,0,.37.44.37,1.34a19.87,19.87,0,0,1-.6,3.94c-.52-2-1.07-3-1.64-3a1.58,1.58,0,0,0-.5.18,1.6,1.6,0,0,1-.55.17c-.58,0-1.09-.52-1.55-1.58q-1.38.21-1.38,1.41a1.1,1.1,0,0,0,.56.95c.36.24.55.41.55.51,0,.54-.79,1.36-2.36,2.48l-1.73,1.25A7.83,7.83,0,0,0,11.4,22a3.89,3.89,0,0,0,.48-1.53c0-.19-.23-.47-.69-.83a1.5,1.5,0,0,1-.68-1.14,3.05,3.05,0,0,1,.36-1.25,1.19,1.19,0,0,0-.93-.45c-.8,0-1.19.26-1.19.78v.8q0,1-1.5,1a23.52,23.52,0,0,1-3.91-.54c2.07-.52,3.11-1.11,3.11-1.79a3.8,3.8,0,0,1-.12-.72c-.08-.61.36-1.17,1.31-1.67-.18-.91-.66-1.37-1.43-1.37-.12,0-.34.21-.66.62s-.62.63-.9.63c-.47,0-1.09-.52-1.85-1.55-.36-.52-.9-1.29-1.64-2.3l1.37.72A3.8,3.8,0,0,0,4,11.77c.28,0,.55-.24.82-.73a1.19,1.19,0,0,1,1.06-.73A11.78,11.78,0,0,1,7,10.67a2.82,2.82,0,0,0,.57-1.29,1.31,1.31,0,0,0-.43-.82,1.16,1.16,0,0,0-.79-.46,1.93,1.93,0,0,0-.47.09,1.88,1.88,0,0,1-.46.09c-.36,0-.54-.45-.54-1.34,0-.24.23-1.61.69-4.1A5.36,5.36,0,0,0,6,4.52C6.34,5.51,6.73,6,7.19,6a1.45,1.45,0,0,0,.48-.18,1.39,1.39,0,0,1,.57-.18,1.3,1.3,0,0,1,1.13.78l.45.8a1.37,1.37,0,0,0,1-.44,1.52,1.52,0,0,0,.41-1.08,1.1,1.1,0,0,0-.55-1c-.37-.23-.55-.4-.55-.52,0-.42.66-1.13,2-2.12A15,15,0,0,1,14.21.66,5.38,5.38,0,0,0,12.93,3.2a1.32,1.32,0,0,0,.51.9,3.24,3.24,0,0,1,.71.8,2.81,2.81,0,0,1-.06,1.89,2.48,2.48,0,0,0,1.23.56.78.78,0,0,0,.86-.89,5.4,5.4,0,0,0-.07-.57,1.9,1.9,0,0,1-.05-.54q.12-.42,1.65-.42a29.18,29.18,0,0,1,4,.54l-2,.54q-1.2.36-1.2.81a3,3,0,0,0,.15.71,3,3,0,0,1,.15.75,1,1,0,0,1-.54.78l-1,.71a4.8,4.8,0,0,0,.48.78,1,1,0,0,0,.8.36q.36,0,.66-.63a1,1,0,0,1,.95-.63q.81,0,1.83,1.5C22.35,11.7,22.94,12.55,23.74,13.69ZM17.11,12A4.51,4.51,0,0,0,15.7,8.64a4.51,4.51,0,0,0-3.31-1.41A4.82,4.82,0,0,0,7.61,12,4.29,4.29,0,0,0,9,15.25a4.71,4.71,0,0,0,3.36,1.39,4.65,4.65,0,0,0,3.39-1.33A4.37,4.37,0,0,0,17.11,12Zm-.45,0a4.06,4.06,0,0,1-1.22,3,4.19,4.19,0,0,1-3,1.19,4.15,4.15,0,0,1-3-1.22,4.15,4.15,0,0,1,0-6,4.23,4.23,0,0,1,6,0A4,4,0,0,1,16.66,12Z" transform="translate(-0.33 -0.21)" style="fill:#03060d"/></svg>