<svg xmlns="http://www.w3.org/2000/svg" width="23.82" height="23.82" viewBox="0 0 23.82 23.82"><path d="M20.42,3.58A11.91,11.91,0,1,1,3.58,20.42" transform="translate(-0.09 -0.09)" style="fill:#c1b5ad"/><path d="M3.58,20.42A11.91,11.91,0,1,1,20.42,3.58" transform="translate(-0.09 -0.09)" style="fill:#f7f5d9"/><path d="M21.44,15.81a1.33,1.33,0,0,1-.71,1.31,5.86,5.86,0,0,1-1.28.28c-.47.08-.7.26-.7.54v1.19c0,.05,0,.2,0,.45l0,.47a3.92,3.92,0,0,1-.1.72l-.64.13a3,3,0,0,1-.12-.6.79.79,0,0,1,0-.22,1.22,1.22,0,0,0,0-.22,2.52,2.52,0,0,0-.18-.57h-.22a.36.36,0,0,0,0,.19,1.36,1.36,0,0,1,0,.42l-.69.47c-.07,0-.09,0-.07,0v-1c0-.05-.07-.06-.15-.06h-.17l-.18,1.38h-.5c-.06-.32-.19-.8-.36-1.43h-.12c-.11.34-.16.52-.17.55a1.58,1.58,0,0,0,0,.23,1,1,0,0,1,0,.23,1.9,1.9,0,0,1,0,.21l0,.36-.08,0a.67.67,0,0,1-.58-.21,1,1,0,0,1-.12-.62l.12-1.75a.35.35,0,0,1,0-.12.33.33,0,0,0,0-.1,1.24,1.24,0,0,0-.25-.47l-.46-.1-1-.21c-.68-.12-1-.67-1-1.62A4.37,4.37,0,0,1,13.7,12c.05.26.13.61.25,1.05l.57.13.89.32a8.78,8.78,0,0,1-1.07-.8,1.57,1.57,0,0,1-.24-1c0-.11.18-.24.55-.38a3.07,3.07,0,0,1,.75-.24,12,12,0,0,1,1.21-.1,4.42,4.42,0,0,1,2.95.94,4.53,4.53,0,0,1-1.25.9,2.64,2.64,0,0,0,1-.27q.68-.3.57-.3c.08,0,.23.16.47.47s.32.45.42.63a5.67,5.67,0,0,1,.63,1.8c0,.22,0,.38,0,.48Zm-5.6.26a1.73,1.73,0,0,0-.55-1.19,1.62,1.62,0,0,0-1.18-.56,1.26,1.26,0,0,0-1,.47,1.52,1.52,0,0,0-.42,1,.62.62,0,0,0,.48.65,3.55,3.55,0,0,0,.86.1h.81C15.51,16.59,15.84,16.42,15.84,16.07Zm1.59,1.82v-.46L17.22,17a5.27,5.27,0,0,0-.32-.82l-.16,1.71c0,.14,0,.2-.09.2a.11.11,0,0,1-.08,0,13.31,13.31,0,0,0-.11-1.34v-.51s0-.05-.07-.05a2.34,2.34,0,0,0-.5,1.66,1.5,1.5,0,0,0,.12.77,1.06,1.06,0,0,0,.26-.1,1.1,1.1,0,0,1,.34,0,1.78,1.78,0,0,1,.67.17Q17.43,18.67,17.43,17.89Zm3.3-2a1.48,1.48,0,0,0-.43-1,1.37,1.37,0,0,0-1-.47,1.58,1.58,0,0,0-1.15.56,1.71,1.71,0,0,0-.54,1.18.45.45,0,0,0,.5.51h1.68C20.42,16.57,20.73,16.33,20.73,15.85Z" transform="translate(-0.09 -0.09)" style="fill:#03060d"/><path d="M13.11,9.2A4,4,0,0,0,12,8.33c-.14,0-.27.05-.4.24a.46.46,0,0,1-.54.2,2.93,2.93,0,0,1-.56-.24A1.52,1.52,0,0,0,10.1,9a.57.57,0,0,0,.13.39.6.6,0,0,0,.31.27.69.69,0,0,0,.26,0,.82.82,0,0,1,.22,0c.11,0,.12.23,0,.62a9.78,9.78,0,0,1-.66,1.64c0-.93-.15-1.43-.4-1.49a.59.59,0,0,0-.23,0,.87.87,0,0,1-.26,0c-.25-.06-.41-.34-.5-.85-.41,0-.66.12-.74.47a.48.48,0,0,0,.14.47q.19.21.18.27c-.05.24-.48.51-1.27.83L6.42,12a3.16,3.16,0,0,0,.51-.52,1.78,1.78,0,0,0,.36-.61c0-.08,0-.22-.21-.43A.66.66,0,0,1,6.9,9.9a1.4,1.4,0,0,1,.29-.5.52.52,0,0,0-.36-.29c-.34-.09-.54,0-.59.21,0-.16,0,0-.09.35s-.31.37-.74.27A9.68,9.68,0,0,1,3.77,9.3q1.42,0,1.53-.45a1.56,1.56,0,0,1,0-.32c0-.28.28-.47.74-.59a.63.63,0,0,0-.48-.74s-.16,0-.34.2-.34.21-.46.18-.42-.34-.64-.86c-.1-.26-.26-.65-.47-1.17L4.19,6a1.69,1.69,0,0,0,.58.33c.12,0,.26,0,.43-.24a.51.51,0,0,1,.53-.2,3.45,3.45,0,0,1,.48.28,1.31,1.31,0,0,0,.38-.5.62.62,0,0,0-.1-.4C6.39,5.12,6.3,5,6.19,5A.62.62,0,0,0,6,5H5.77c-.15,0-.18-.25-.09-.64,0-.1.26-.67.72-1.69a2.27,2.27,0,0,0,0,.76c0,.47.16.72.36.77a.53.53,0,0,0,.22,0,.67.67,0,0,1,.27,0,.61.61,0,0,1,.41.45l.11.4a.6.6,0,0,0,.49-.09.72.72,0,0,0,.3-.42A.5.5,0,0,0,8.42,4c-.14-.13-.2-.23-.18-.28s.4-.42,1.07-.71a6.41,6.41,0,0,1,1-.4,2.43,2.43,0,0,0-.82,1A.64.64,0,0,0,9.65,4a1.38,1.38,0,0,1,.23.42,1.27,1.27,0,0,1-.22.81,1.09,1.09,0,0,0,.47.37.34.34,0,0,0,.46-.3,1.3,1.3,0,0,0,0-.25.59.59,0,0,1,0-.24c.06-.11.31-.11.75,0a14.21,14.21,0,0,1,1.66.64l-.91,0c-.37,0-.57.1-.6.23a2.55,2.55,0,0,0,0,.32,1.14,1.14,0,0,1,0,.34c0,.12-.13.21-.31.28l-.51.2a2,2,0,0,0,.12.39.48.48,0,0,0,.31.24c.11,0,.22,0,.35-.21A.45.45,0,0,1,12,7.09q.35.09.63.84C12.72,8.21,12.88,8.63,13.11,9.2ZM10.43,7.77a2,2,0,0,0-.27-1.58,2,2,0,0,0-1.28-1A2.16,2.16,0,0,0,6.32,6.79a1.92,1.92,0,0,0,.27,1.57,2.17,2.17,0,0,0,2.91.73A2,2,0,0,0,10.43,7.77Zm-.2,0A1.75,1.75,0,0,1,9.39,8.9,1.84,1.84,0,0,1,8,9.1a1.8,1.8,0,0,1-1.17-.84A1.83,1.83,0,0,1,7.4,5.69a1.83,1.83,0,0,1,1.42-.23A1.85,1.85,0,0,1,10,6.32,1.75,1.75,0,0,1,10.23,7.72Z" transform="translate(-0.09 -0.09)" style="fill:#03060d"/></svg>