<svg xmlns="http://www.w3.org/2000/svg" width="24" height="24" viewBox="0 0 24 24"><path d="M20.48,3.51a12,12,0,0,1-17,17" style="fill:#bbd8e7"/><path d="M3.51,20.49a12,12,0,0,1,17-17" style="fill:#f7f5d9"/><path d="M18.41,20.08a3.19,3.19,0,0,1-2.38,1A3.17,3.17,0,0,1,13.5,20a3.94,3.94,0,0,1-.88-2.65,7.28,7.28,0,0,1,1.5-3.94A15.15,15.15,0,0,1,17,10.2a8.71,8.71,0,0,0-.24,1.58,3.75,3.75,0,0,0,.67,2.09c.56.81,1,1.41,1.27,1.8a3.59,3.59,0,0,1,.67,2A3.3,3.3,0,0,1,18.41,20.08Zm0-3.69a1.61,1.61,0,0,0-.61-.77.6.6,0,0,1,.05.29,3.77,3.77,0,0,1-.21,1l-.22.69a.54.54,0,0,0,.61.61c.42,0,.64-.28.64-.85A2.6,2.6,0,0,0,18.4,16.39Z" style="fill:#03060d"/><path d="M13.12,9.18A4.16,4.16,0,0,0,12,8.3c-.14,0-.28,0-.4.24a.49.49,0,0,1-.55.21,5.07,5.07,0,0,1-.56-.25,1.66,1.66,0,0,0-.36.43.53.53,0,0,0,.13.38.63.63,0,0,0,.31.29l.26,0H11c.1,0,.11.23,0,.62a9.17,9.17,0,0,1-.68,1.66q0-1.41-.39-1.5a.63.63,0,0,0-.24,0,.83.83,0,0,1-.25,0c-.26-.06-.43-.35-.52-.86a.61.61,0,0,0-.74.47.49.49,0,0,0,.14.48c.14.14.2.23.19.27q-.09.36-1.29.84L6.38,12a3.16,3.16,0,0,0,.51-.52,1.57,1.57,0,0,0,.36-.61c0-.09,0-.24-.21-.44a.66.66,0,0,1-.18-.56,1.35,1.35,0,0,1,.29-.51.54.54,0,0,0-.36-.3c-.34-.08-.54,0-.6.22,0-.16,0,0-.08.35s-.31.38-.76.27a10.38,10.38,0,0,1-1.64-.64c1,0,1.47-.16,1.54-.46a1.55,1.55,0,0,1,0-.32c0-.28.28-.47.74-.59q0-.63-.48-.75s-.17.06-.35.21a.59.59,0,0,1-.45.18c-.21,0-.43-.34-.65-.87C4,6.41,3.82,6,3.61,5.5L4.13,6a1.78,1.78,0,0,0,.58.33c.12,0,.27,0,.44-.23a.5.5,0,0,1,.53-.21l.49.28a1.31,1.31,0,0,0,.38-.5.58.58,0,0,0-.11-.4.53.53,0,0,0-.29-.29H5.94a.71.71,0,0,1-.21,0c-.16,0-.19-.26-.1-.65,0-.1.27-.67.73-1.71a2.56,2.56,0,0,0,0,.77c.05.47.17.73.37.78a.53.53,0,0,0,.22,0,.68.68,0,0,1,.27,0,.58.58,0,0,1,.41.46l.11.39a.59.59,0,0,0,.5-.08.64.64,0,0,0,.3-.43.5.5,0,0,0-.14-.49c-.13-.14-.2-.23-.18-.28s.4-.43,1.08-.72a6.76,6.76,0,0,1,1-.4,2.4,2.4,0,0,0-.82,1,.61.61,0,0,0,.12.45,1.18,1.18,0,0,1,.23.42,1.21,1.21,0,0,1-.22.81,1.06,1.06,0,0,0,.47.38.35.35,0,0,0,.47-.3,1.47,1.47,0,0,0,0-.26c0-.14,0-.22,0-.23s.31-.12.76,0a15.67,15.67,0,0,1,1.67.65l-.92,0c-.37,0-.57.1-.6.23a1.5,1.5,0,0,0,0,.33,1.68,1.68,0,0,1,0,.34c0,.12-.14.21-.32.28l-.51.2a2,2,0,0,0,.12.39.44.44,0,0,0,.32.24c.1,0,.22,0,.35-.2A.46.46,0,0,1,12,7.05c.23.06.45.34.64.84C12.72,8.18,12.89,8.61,13.12,9.18ZM10.41,7.74a2,2,0,0,0-.26-1.59,2,2,0,0,0-1.3-1A2.16,2.16,0,0,0,6.28,6.75a1.94,1.94,0,0,0,.27,1.58,2.18,2.18,0,0,0,2.94.73A2,2,0,0,0,10.41,7.74Zm-.19,0a1.82,1.82,0,0,1-.85,1.19,1.87,1.87,0,0,1-1.45.2,1.8,1.8,0,0,1-1.18-.85,1.85,1.85,0,0,1,.62-2.59A1.88,1.88,0,0,1,8.8,5.41,1.85,1.85,0,0,1,10,6.27,1.76,1.76,0,0,1,10.22,7.69Z" style="fill:#03060d"/></svg>