<svg xmlns="http://www.w3.org/2000/svg" width="24" height="24" viewBox="0 0 24 24"><path d="M24,12A12,12,0,1,1,12,0,12,12,0,0,1,24,12Z" style="fill:#cfc9c2"/><path d="M13.59,19.2v-.79c1.13-.13,1.7-.45,1.7-1a1.84,1.84,0,0,0-.45-1.14l-3.13-3.84-2.46,2.9a3.08,3.08,0,0,0-.93,1.77c0,.71.57,1.14,1.7,1.29v.79H4v-.79A4.73,4.73,0,0,0,6,17.59a13.06,13.06,0,0,0,1.51-1.54l3.71-4.3L6.88,6.55a7.61,7.61,0,0,0-1.3-1.32,3.57,3.57,0,0,0-1.73-.57V3.84h7.09v.79c-1.07.21-1.6.53-1.6,1a1.58,1.58,0,0,0,.43,1L12.61,10l2.28-2.8a2.28,2.28,0,0,0,.62-1.33c0-.63-.51-1-1.52-1.23V3.84h5.65v.79a6.36,6.36,0,0,0-1,.28,11.57,11.57,0,0,0-2.83,2.63c-.21.23-1.07,1.29-2.59,3.18l4.55,5.61a5.18,5.18,0,0,0,3,2.08v.79Z" style="fill:#03060d"/></svg>