<svg xmlns="http://www.w3.org/2000/svg" width="24" height="24" viewBox="0 0 24 24"><path d="M24,12A12,12,0,1,1,12,0,12,12,0,0,1,24,12Z" style="fill:#cdc8c1"/><path d="M13.18,15.77a3.33,3.33,0,0,0,.47,2,1.92,1.92,0,0,0,1.59.58l.18,0v.85H8.51v-.85h.23a1.91,1.91,0,0,0,1.59-.56,3.28,3.28,0,0,0,.47-2v-3L6.4,6.34l-.47-.63a2.3,2.3,0,0,0-.38-.42,1.76,1.76,0,0,0-.62-.35,5.59,5.59,0,0,0-.84-.17V3.9H10.8v.85A4,4,0,0,0,9.43,5a.73.73,0,0,0-.36.71,1.2,1.2,0,0,0,.09.45,2.72,2.72,0,0,0,.25.47l3.41,4.93,2.49-3.65a5.16,5.16,0,0,0,.52-.86,2.79,2.79,0,0,0,.2-.67V6.23a1.31,1.31,0,0,0-.38-1,2.36,2.36,0,0,0-1.33-.43V3.9h5.55v.85a3.33,3.33,0,0,0-.5.12,2.1,2.1,0,0,0-.42.22,2.78,2.78,0,0,0-.75.64A13.52,13.52,0,0,0,17.28,7l-4.1,5.83Z" style="fill:#03060d"/></svg>