<svg xmlns="http://www.w3.org/2000/svg" width="24" height="24" viewBox="0 0 24 24"><path d="M24,12A12,12,0,1,1,12,0,12,12,0,0,1,24,12Z" transform="translate(0)" style="fill:#cdc8c1"/><path d="M17.85,19.2H4.94v-.65L15.18,4.82H10.62a5.77,5.77,0,0,0-1.73.23,2.66,2.66,0,0,0-1.12.82L7.69,6l-.08.09a2.49,2.49,0,0,1-.17.24,1.1,1.1,0,0,0-.14.21.83.83,0,0,1-.07.13l-.09.14c0,.09-.07.18-.11.28l-.16.35-.81,0V3.9H18.32v.6L8,18.28h4.47a10.68,10.68,0,0,0,1.6-.05,3.77,3.77,0,0,0,1.12-.29l.12,0,.1,0a4.24,4.24,0,0,0,.61-.36,5.7,5.7,0,0,0,.58-.47c.13-.13.27-.28.4-.43s.28-.34.43-.53l.58-.83h.86Z" transform="translate(0)" style="fill:#03060d"/></svg>